<svg width="576" height="593" fill="none" xmlns="http://www.w3.org/2000/svg"><path d="m324 511.5-15-8.66v17.32l15-8.66Zm-72 1.5h58.5v-3H252v3ZM576 81l-15-8.66v17.32L576 81Zm-72 1.5h58.5v-3H504v3ZM576 367.5l-15-8.66v17.32l15-8.66Zm-72 1.5h58.5v-3H504v3ZM324 367.5l-15-8.66v17.32l15-8.66Zm-72 1.5h58.5v-3H252v3ZM324 295.5l-15-8.66v17.32l15-8.66Zm-72 1.5h58.5v-3H252v3Z" fill="#9D9D9D"/><path d="m324 441-15-8.66v17.32l15-8.66Zm-37.5-58.5V426h3v-43.5h-3Zm16.5 60h7.5v-3H303v3ZM273 366h-21v3h21v-3Zm13.5 60c0 9.113 7.387 16.5 16.5 16.5v-3c-7.456 0-13.5-6.044-13.5-13.5h-3Zm3-43.5c0-9.113-7.387-16.5-16.5-16.5v3c7.456 0 13.5 6.044 13.5 13.5h3ZM576 441l-15-8.66v17.32l15-8.66Zm-37.5-58.5V426h3v-43.5h-3Zm16.5 60h7.5v-3H555v3ZM525 366h-21v3h21v-3Zm13.5 60c0 9.113 7.387 16.5 16.5 16.5v-3c-7.456 0-13.5-6.044-13.5-13.5h-3Zm3-43.5c0-9.113-7.387-16.5-16.5-16.5v3c7.456 0 13.5 6.044 13.5 13.5h3Z" fill="#9D9D9D"/><path d="m576 514.5-15-8.66v17.32l15-8.66Zm-37.5-132v117h3v-117h-3ZM555 516h7.5v-3H555v3Zm-30-150h-21v3h21v-3Zm13.5 133.5c0 9.113 7.387 16.5 16.5 16.5v-3c-7.456 0-13.5-6.044-13.5-13.5h-3Zm3-117c0-9.113-7.387-16.5-16.5-16.5v3c7.456 0 13.5 6.044 13.5 13.5h3Z" fill="#9D9D9D"/><path d="m576 295.5-15 8.66v-17.32l15 8.66Zm-51 72v1.5-1.5Zm13.5-15v-42h3v42h-3ZM555 294h7.5v3H555v-3Zm-30 75h-21v-3h21v3Zm13.5-58.5c0-9.113 7.387-16.5 16.5-16.5v3c-7.456 0-13.5 6.044-13.5 13.5h-3Zm3 42c0 9.113-7.387 16.5-16.5 16.5v-3c7.456 0 13.5-6.044 13.5-13.5h3ZM576 9l-15 8.66V.34L576 9Zm-51 72v1.5V81Zm13.5-15V24h3v42h-3ZM555 7.5h7.5v3H555v-3Zm-30 75h-21v-3h21v3ZM538.5 24c0-9.113 7.387-16.5 16.5-16.5v3c-7.456 0-13.5 6.044-13.5 13.5h-3Zm3 42c0 9.113-7.387 16.5-16.5 16.5v-3c7.456 0 13.5-6.044 13.5-13.5h3Z" fill="#9D9D9D"/><path d="m576 153-15-8.66v17.32l15-8.66Zm-51-72v-1.5V81Zm13.5 15v42h3V96h-3Zm16.5 58.5h7.5v-3H555v3Zm-30-75h-21v3h21v-3Zm13.5 58.5c0 9.113 7.387 16.5 16.5 16.5v-3c-7.456 0-13.5-6.044-13.5-13.5h-3Zm3-42c0-9.113-7.387-16.5-16.5-16.5v3c7.456 0 13.5 6.044 13.5 13.5h3ZM324 81l-15 8.66V72.34L324 81Zm-51 214.5v1.5-1.5Zm13.5-15V96h3v184.5h-3Zm16.5-201h7.5v3H303v-3ZM273 297h-21v-3h21v3Zm13.5-201c0-9.113 7.387-16.5 16.5-16.5v3c-7.456 0-13.5 6.044-13.5 13.5h-3Zm3 184.5c0 9.113-7.387 16.5-16.5 16.5v-3c7.456 0 13.5-6.044 13.5-13.5h3Z" fill="#9D9D9D"/><path d="m324 151.5-15 8.66v-17.32l15 8.66Zm-37.5 129v-114h3v114h-3ZM303 150h7.5v3H303v-3Zm-30 147h-21v-3h21v3Zm13.5-130.5c0-9.113 7.387-16.5 16.5-16.5v3c-7.456 0-13.5 6.044-13.5 13.5h-3Zm3 114c0 9.113-7.387 16.5-16.5 16.5v-3c7.456 0 13.5-6.044 13.5-13.5h3Z" fill="#9D9D9D"/><path d="m324 223.5-15 8.66v-17.32l15 8.66Zm-51 72v1.5-1.5Zm13.5-15v-42h3v42h-3ZM303 222h7.5v3H303v-3Zm-30 75h-21v-3h21v3Zm13.5-58.5c0-9.113 7.387-16.5 16.5-16.5v3c-7.456 0-13.5 6.044-13.5 13.5h-3Zm3 42c0 9.113-7.387 16.5-16.5 16.5v-3c7.456 0 13.5-6.044 13.5-13.5h3ZM72 295.5l-15-8.66v17.32l15-8.66ZM0 297h58.5v-3H0v3Z" fill="#9D9D9D"/><path d="m72 367.5-15-8.66v17.32l15-8.66Zm-37.5-72v57h3v-57h-3ZM51 369h7.5v-3H51v3Zm-16.5-16.5c0 9.113 7.387 16.5 16.5 16.5v-3c-7.456 0-13.5-6.044-13.5-13.5h-3Z" fill="#9D9D9D"/><path d="m72 441-15-8.66v17.32L72 441Zm-37.5-90v75h3v-75h-3ZM51 442.5h7.5v-3H51v3ZM34.5 426c0 9.113 7.387 16.5 16.5 16.5v-3c-7.456 0-13.5-6.044-13.5-13.5h-3Z" fill="#9D9D9D"/><path d="m72 514.5-15-8.66v17.32l15-8.66Zm-37.5-90v75h3v-75h-3ZM51 516h7.5v-3H51v3Zm-16.5-16.5c0 9.113 7.387 16.5 16.5 16.5v-3c-7.456 0-13.5-6.044-13.5-13.5h-3Z" fill="#9D9D9D"/><path d="m72 584.25-15-8.66v17.32l15-8.66Zm-37.5-90v75h3v-75h-3Zm16.5 91.5h7.5v-3H51v3Zm-16.5-16.5c0 9.113 7.387 16.5 16.5 16.5v-3c-7.456 0-13.5-6.044-13.5-13.5h-3Z" fill="#9D9D9D"/></svg>