<svg width="49" height="31" fill="none" xmlns="http://www.w3.org/2000/svg"><g filter="url('#filter0_d_16_4039')"><path d="M23.128 27.173c-3.073 0-5.678-.657-7.816-1.973s-3.207-2.919-3.207-4.81V7.44c0-1.357.785-2.518 2.355-3.484 1.57-.966 3.457-1.45 5.662-1.45 2.204 0 4.092.484 5.662 1.45 1.57.966 2.355 2.127 2.355 3.484v11.717c0 .863-.485 1.593-1.453 2.189-.97.596-2.155.894-3.558.894s-2.589-.298-3.557-.894c-.969-.596-1.453-1.326-1.453-2.19V8.366c0-.267.142-.488.427-.662.283-.176.642-.263 1.076-.263.434 0 .794.087 1.078.263.283.174.425.395.425.662v10.792c0 .349.192.642.577.878.384.236.86.355 1.427.355.568 0 1.044-.119 1.43-.355.383-.236.574-.529.574-.878V7.44c0-.863-.484-1.593-1.453-2.19-.968-.595-2.154-.893-3.557-.893s-2.589.298-3.558.894c-.968.596-1.453 1.326-1.453 2.189v12.95c0 1.357.785 2.518 2.355 3.484 1.57.966 3.458 1.45 5.662 1.45 2.205 0 4.092-.484 5.662-1.45 1.57-.966 2.355-2.127 2.355-3.484V8.365c0-.267.142-.488.427-.662.283-.176.642-.263 1.076-.263.434 0 .794.087 1.078.263.283.174.425.395.425.662V20.39c0 1.891-1.069 3.494-3.207 4.81-2.137 1.316-4.743 1.973-7.816 1.973Z" fill="#000"/></g><defs><filter id="filter0_d_16_4039" x="-.66" y=".04" width="49.58" height="33.3" filterUnits="userSpaceOnUse" color-interpolation-filters="sRGB"><feFlood flood-opacity="0" result="BackgroundImageFix"/><feColorMatrix in="SourceAlpha" values="0 0 0 0 0 0 0 0 0 0 0 0 0 0 0 0 0 0 127 0" result="hardAlpha"/><feOffset dy="2.96"/><feGaussianBlur stdDeviation=".37"/><feComposite in2="hardAlpha" operator="out"/><feColorMatrix values="0 0 0 0 0 0 0 0 0 0 0 0 0 0 0 0 0 0 1 0"/><feBlend in2="BackgroundImageFix" result="effect1_dropShadow_16_4039"/><feBlend in="SourceGraphic" in2="effect1_dropShadow_16_4039" result="shape"/></filter></defs></svg>