<svg width="48" height="48" fill="none" xmlns="http://www.w3.org/2000/svg"><path d="M15.4 32.6c.367.367.833.55 1.4.55s1.033-.183 1.4-.55l5.8-5.8 5.85 5.85c.367.367.825.541 1.376.524.55-.016 1.007-.207 1.374-.574.367-.367.55-.833.55-1.4s-.183-1.033-.55-1.4L26.8 24l5.85-5.85c.367-.367.541-.825.524-1.376-.016-.55-.207-1.007-.574-1.374-.367-.367-.833-.55-1.4-.55s-1.033.183-1.4.55L24 21.2l-5.85-5.85c-.367-.367-.825-.542-1.374-.526-.55.017-1.01.21-1.376.576-.367.367-.55.833-.55 1.4s.183 1.033.55 1.4l5.8 5.8-5.85 5.85c-.367.367-.541.825-.524 1.374.016.55.207 1.01.574 1.376ZM24 44c-2.767 0-5.367-.525-7.8-1.576-2.433-1.05-4.55-2.474-6.35-4.274-1.8-1.8-3.225-3.917-4.274-6.35C4.526 29.367 4 26.767 4 24c0-2.767.525-5.367 1.576-7.8 1.05-2.433 2.474-4.55 4.274-6.35 1.8-1.8 3.917-3.225 6.35-4.276C18.633 4.524 21.233 4 24 4c2.767 0 5.367.525 7.8 1.574 2.433 1.05 4.55 2.476 6.35 4.276 1.8 1.8 3.225 3.917 4.274 6.35C43.474 18.633 44 21.233 44 24c0 2.767-.525 5.367-1.576 7.8-1.05 2.433-2.474 4.55-4.274 6.35-1.8 1.8-3.917 3.225-6.35 4.274C29.367 43.474 26.767 44 24 44Zm0-4c4.433 0 8.209-1.558 11.326-4.674C38.442 32.209 40 28.433 40 24c0-4.433-1.558-8.209-4.674-11.326C32.209 9.558 28.433 8 24 8c-4.433 0-8.208 1.558-11.324 4.674C9.559 15.791 8 19.567 8 24c0 4.433 1.559 8.209 4.676 11.326C15.792 38.442 19.566 40 24 40Z" fill="#000"/></svg>