<svg width="99" height="99" fill="none" xmlns="http://www.w3.org/2000/svg"><path d="M27.974 59.295a7.799 7.799 0 1 1-7.797-7.8h7.797v7.8Zm3.929 0a7.8 7.8 0 1 1 15.602 0v19.53a7.8 7.8 0 0 1-15.6 0l-.002-19.53Zm7.802-31.321a7.8 7.8 0 1 1 7.8-7.797v7.797h-7.8Zm0 3.929a7.8 7.8 0 0 1 0 15.602H20.171a7.799 7.799 0 1 1 0-15.6l19.534-.002Zm31.321 7.802a7.8 7.8 0 1 1 7.797 7.8h-7.797v-7.8Zm-3.929 0a7.8 7.8 0 1 1-15.602 0V20.171a7.8 7.8 0 0 1 15.6 0l.002 19.534Zm-7.802 31.321a7.8 7.8 0 1 1-7.8 7.797v-7.797h7.8Zm0-3.929a7.801 7.801 0 0 1 0-15.601h19.53a7.8 7.8 0 1 1 0 15.598l-19.53.003Z" fill="#fff"/></svg>