<svg width="46" height="46" fill="none" xmlns="http://www.w3.org/2000/svg"><g clip-path="url('#clip0_92_3395')"><path d="M23 .92C10.805.92.92 10.805.92 23c0 12.195 9.885 22.08 22.08 22.08 12.195 0 22.08-9.885 22.08-22.08C45.08 10.805 35.195.92 23 .92Zm-5.405 31.232h-4.471v-14.39h4.471v14.39Zm-2.263-16.156c-1.412 0-2.325-1-2.325-2.237 0-1.263.94-2.234 2.382-2.234 1.442 0 2.326.97 2.353 2.234 0 1.237-.91 2.237-2.41 2.237Zm18.593 16.156h-4.471v-7.974c0-1.857-.649-3.117-2.266-3.117-1.235 0-1.968.853-2.293 1.674-.12.293-.15.707-.15 1.118v8.296h-4.473v-9.798a96.13 96.13 0 0 0-.117-4.59h3.885l.204 1.998h.09c.589-.938 2.03-2.323 4.444-2.323 2.941 0 5.147 1.971 5.147 6.208v8.508Z" fill="#3C3C3C"/></g><defs><clipPath id="clip0_92_3395"><path fill="#fff" d="M0 0h46v46H0z"/></clipPath></defs></svg>