<svg width="53" height="53" fill="none" xmlns="http://www.w3.org/2000/svg"><g opacity=".99" fill="#fff"><path fill-rule="evenodd" clip-rule="evenodd" d="M32.443 4.66c-1.022-.245-2.081-.244-3.484-.243H21.55c-1.777 0-3.244 0-4.44.097-1.24.102-2.382.32-3.454.865a8.833 8.833 0 0 0-3.86 3.86c-.546 1.072-.764 2.214-.865 3.455-.098 1.195-.098 2.662-.098 4.44v18.732c0 1.778 0 3.245.098 4.44.101 1.241.32 2.382.865 3.454a8.833 8.833 0 0 0 3.86 3.86c1.072.547 2.213.764 3.455.866 1.195.097 2.662.097 4.44.097h9.899c1.777 0 3.244 0 4.44-.097 1.24-.102 2.382-.32 3.454-.865a8.832 8.832 0 0 0 3.86-3.86c.546-1.073.764-2.214.865-3.455.098-1.195.098-2.662.098-4.44V19.624c0-1.402 0-2.462-.244-3.484a8.828 8.828 0 0 0-1.058-2.553c-.549-.896-1.299-1.645-2.29-2.636L37.631 8.01c-.99-.992-1.74-1.742-2.636-2.29a8.834 8.834 0 0 0-2.553-1.058Zm-3.735 4.173h-7.066c-1.892 0-3.178.002-4.172.083-.968.08-1.463.223-1.808.399a4.417 4.417 0 0 0-1.93 1.93c-.176.345-.32.84-.399 1.809-.081.993-.083 2.28-.083 4.171v18.55c0 1.892.002 3.178.083 4.171.08.969.223 1.464.398 1.81a4.417 4.417 0 0 0 1.93 1.93c.346.175.841.319 1.81.398.993.08 2.28.083 4.17.083h9.717c1.892 0 3.178-.002 4.172-.083.968-.08 1.463-.223 1.809-.399a4.417 4.417 0 0 0 1.93-1.93c.176-.345.319-.84.398-1.809.081-.993.083-2.28.083-4.171v-15.9h-4.417a6.625 6.625 0 0 1-6.625-6.625V8.833Zm10.07 6.625c-.265-.313-.689-.746-1.486-1.543l-2.624-2.624c-.797-.797-1.23-1.22-1.543-1.486v3.445c0 1.22.989 2.208 2.208 2.208h3.445Z"/><path d="M28.708 26.5a2.208 2.208 0 0 0-4.416 0v2.208h-2.209a2.208 2.208 0 0 0 0 4.417h2.209v2.208a2.208 2.208 0 0 0 4.416 0v-2.208h2.209a2.208 2.208 0 0 0 0-4.417h-2.209V26.5Z"/></g></svg>