<svg width="43" height="49" fill="none" xmlns="http://www.w3.org/2000/svg"><g clip-path="url('#clip0_18_4963')"><path d="M26.278 44.917V26.542l13.7-15.653c.204-.232.364-.508.473-.812.109-.304.163-.63.16-.958V6.805c0-.36-.126-.707-.35-.962a1.126 1.126 0 0 0-.844-.399H3.583c-.316 0-.62.144-.844.399-.224.255-.35.601-.35.962V9.08c0 .321.056.64.165.936.108.297.268.566.468.792l13.7 15.843v13.884l9.556 4.383Z" fill="#000"/><path d="M39.99 5.444H2.962a.595.595 0 0 0-.408.226.765.765 0 0 0-.165.482v2.341c-.002.24.039.478.119.7.08.222.198.424.347.593L17.188 26.12v13.61l8.66 4.914V26.092L40.18 9.76c.274-.337.428-.779.43-1.239V6.152a.76.76 0 0 0-.182-.5.585.585 0 0 0-.439-.208Z" fill="#fff"/></g><defs><clipPath id="clip0_18_4963"><path fill="#fff" d="M0 0h43v49H0z"/></clipPath></defs></svg>