<svg width="171" height="26" fill="none" xmlns="http://www.w3.org/2000/svg"><path d="M101.168 17.03c-.241 0-.417-.03-.527-.089a.322.322 0 0 1-.157-.293V5.37c0-.189.039-.322.118-.4.084-.078.218-.117.4-.117h3.516c1.015 0 1.914.244 2.695.732.788.482 1.182 1.37 1.182 2.666 0 .964-.225 1.712-.674 2.246-.45.527-.954.882-1.514 1.064-.56.176-1.064.264-1.514.264h-2.695v4.824c0 .13-.055.228-.166.293-.111.059-.283.088-.518.088h-.146Zm3.545-6.524c.293 0 .599-.062.918-.186.319-.13.596-.361.83-.693.234-.339.351-.798.351-1.377 0-.775-.231-1.315-.693-1.621-.456-.306-1.006-.46-1.65-.46h-2.471v4.337h2.715ZM112.721 17.098c-.886 0-1.602-.218-2.149-.655-.547-.436-.82-1.084-.82-1.943 0-.905.277-1.585.83-2.041.553-.462 1.227-.758 2.022-.889.8-.136 1.77-.215 2.91-.234v-.82c0-.437-.15-.785-.45-1.045-.293-.267-.778-.4-1.455-.4-.514 0-.966.061-1.357.185-.384.117-.745.26-1.084.43-.143.071-.231.107-.264.107-.078 0-.166-.055-.263-.166a2.307 2.307 0 0 1-.245-.39c-.065-.144-.097-.248-.097-.313 0-.15.153-.313.459-.488.312-.176.719-.323 1.221-.44a6.882 6.882 0 0 1 1.572-.176c1.087 0 1.93.238 2.529.713s.899 1.143.899 2.002v3.897c0 .755.032 1.302.097 1.64.072.332.108.515.108.547 0 .143-.111.247-.332.313a2.31 2.31 0 0 1-.606.088c-.156 0-.273-.088-.351-.264a4.722 4.722 0 0 1-.215-.762l-.039-.195a4.058 4.058 0 0 1-1.27.947c-.482.235-1.032.352-1.65.352Zm.078-1.26c.573 0 1.061-.104 1.465-.313.403-.208.82-.504 1.25-.888v-2.051c-.86.006-1.566.042-2.119.107a3.396 3.396 0 0 0-1.456.498c-.416.26-.625.668-.625 1.221 0 .462.124.817.372 1.065.253.24.625.36 1.113.36ZM121.744 17.166c-.488 0-.944-.062-1.367-.186-.423-.123-.762-.273-1.016-.449-.247-.182-.371-.341-.371-.478 0-.065.033-.17.098-.313.072-.143.153-.27.244-.38.098-.118.186-.176.264-.176.019 0 .078.032.175.097.261.17.534.313.821.43.293.117.641.176 1.045.176 1.133 0 1.699-.469 1.699-1.407 0-.267-.055-.491-.166-.673-.104-.183-.283-.342-.537-.479-.248-.143-.589-.28-1.026-.41-.625-.182-1.113-.39-1.464-.625-.345-.234-.59-.508-.733-.82-.143-.32-.215-.704-.215-1.153 0-.481.121-.914.362-1.299a2.505 2.505 0 0 1 1.025-.898 3.38 3.38 0 0 1 1.494-.322c.384 0 .752.036 1.104.107.358.072.644.166.859.283.221.111.332.228.332.352 0 .091-.032.215-.098.371-.058.15-.133.283-.224.4-.091.111-.173.166-.244.166a1.72 1.72 0 0 1-.244-.117 2.596 2.596 0 0 0-.577-.224 2.524 2.524 0 0 0-.761-.108c-.443 0-.811.101-1.104.303-.286.195-.43.459-.43.791 0 .39.105.703.313.938.208.234.553.426 1.035.576.742.228 1.309.455 1.699.683.391.228.668.508.83.84.17.326.254.755.254 1.29 0 .507-.136.97-.41 1.386-.273.41-.644.736-1.113.976a3.424 3.424 0 0 1-1.553.352ZM128.912 17.166c-.488 0-.944-.062-1.367-.186-.423-.123-.762-.273-1.016-.449-.247-.182-.371-.341-.371-.478 0-.065.033-.17.098-.313.071-.143.153-.27.244-.38.098-.118.186-.176.264-.176.019 0 .078.032.175.097.261.17.534.313.821.43.293.117.641.176 1.045.176 1.133 0 1.699-.469 1.699-1.407 0-.267-.055-.491-.166-.673-.104-.183-.283-.342-.537-.479-.248-.143-.589-.28-1.026-.41-.625-.182-1.113-.39-1.464-.625-.346-.234-.59-.508-.733-.82-.143-.32-.215-.704-.215-1.153 0-.481.121-.914.362-1.299a2.505 2.505 0 0 1 1.025-.898 3.38 3.38 0 0 1 1.494-.322c.384 0 .752.036 1.104.107.358.072.644.166.859.283.221.111.332.228.332.352 0 .091-.032.215-.098.371-.058.15-.133.283-.224.4-.091.111-.173.166-.244.166a1.72 1.72 0 0 1-.244-.117 2.596 2.596 0 0 0-.577-.224 2.53 2.53 0 0 0-.761-.108c-.443 0-.811.101-1.104.303-.286.195-.43.459-.43.791 0 .39.105.703.313.938.208.234.553.426 1.035.576.742.228 1.309.455 1.699.683.391.228.668.508.83.84.17.326.254.755.254 1.29 0 .507-.136.97-.41 1.386-.273.41-.644.736-1.113.976a3.424 3.424 0 0 1-1.553.352ZM136.305 17.03c-.423 0-.655-.092-.694-.274l-2.285-8.233c-.065-.182-.097-.296-.097-.341 0-.196.266-.293.8-.293.417 0 .648.09.694.273l1.465 5.557c.026.09.11.462.253 1.113.033.176.095.465.186.87.13-.802.273-1.469.43-2.003l1.435-5.517c.046-.196.274-.293.684-.293h.117c.397 0 .625.097.684.293l1.445 5.517c.156.573.286 1.136.39 1.69l.049.293c.183-.964.316-1.612.401-1.944l1.465-5.576c.045-.182.28-.273.703-.273.462 0 .693.097.693.293 0 .071-.016.15-.049.234l-2.334 8.34c-.039.182-.267.273-.683.273h-.528c-.41 0-.634-.09-.674-.273l-1.396-5.508a18.382 18.382 0 0 1-.254-1.348 11.403 11.403 0 0 1-.264 1.338l-1.416 5.518c-.039.182-.273.273-.703.273h-.517ZM150.66 17.098c-1.308 0-2.308-.391-2.998-1.172-.683-.788-1.025-1.93-1.025-3.428 0-1.497.348-2.65 1.045-3.457.696-.814 1.689-1.22 2.978-1.22 1.276 0 2.253.403 2.93 1.21.677.801 1.015 1.957 1.015 3.467 0 1.504-.335 2.647-1.005 3.428-.664.781-1.644 1.172-2.94 1.172Zm-.049-1.25c.847 0 1.472-.274 1.875-.82.404-.554.606-1.407.606-2.56 0-1.158-.202-2.014-.606-2.568-.403-.553-1.028-.83-1.875-.83-.84 0-1.458.277-1.855.83-.397.547-.596 1.403-.596 2.569 0 1.159.195 2.011.586 2.558.397.547 1.019.82 1.865.82ZM157.828 17.03c-.247 0-.426-.03-.537-.089a.318.318 0 0 1-.166-.293v-6.093c0-.756-.036-1.3-.107-1.631a7.154 7.154 0 0 1-.108-.557c0-.143.108-.244.322-.303.222-.065.43-.097.625-.097.157 0 .274.084.352.254.078.162.146.394.205.693l.049.205c.618-.866 1.289-1.299 2.012-1.299.332 0 .582.062.752.186a.552.552 0 0 1 .253.478c0 .196-.035.404-.107.625-.065.215-.143.323-.234.323a.932.932 0 0 1-.244-.059 1.463 1.463 0 0 0-.313-.098 1.694 1.694 0 0 0-.4-.039c-.267 0-.521.078-.762.235a2.93 2.93 0 0 0-.596.517c-.163.19-.244.293-.244.313v6.347c0 .13-.055.228-.166.293-.111.059-.283.088-.518.088h-.068ZM166.178 17.098c-.677 0-1.27-.196-1.778-.586-.507-.397-.901-.947-1.181-1.65-.274-.704-.41-1.501-.41-2.393 0-.983.146-1.823.439-2.52.3-.703.716-1.234 1.25-1.592.534-.358 1.149-.537 1.846-.537.501 0 .944.075 1.328.225.39.15.775.368 1.152.654V4.324c0-.254.228-.38.684-.38h.078c.462 0 .693.126.693.38v10.108c0 .755.036 1.302.108 1.64.071.332.107.515.107.547 0 .143-.111.247-.332.313a2.308 2.308 0 0 1-.605.088c-.131 0-.235-.062-.313-.186a1.347 1.347 0 0 1-.166-.371c-.026-.13-.071-.352-.137-.664-.826.866-1.748 1.299-2.763 1.299Zm.302-1.26c.385 0 .782-.104 1.192-.313a3.961 3.961 0 0 0 1.152-.888V9.88a3.247 3.247 0 0 0-2.138-.781c-.775.02-1.361.302-1.758.85-.391.546-.586 1.34-.586 2.382 0 1.12.182 1.986.547 2.598.371.605.901.908 1.591.908ZM76 7h-1V5c0-2.76-2.24-5-5-5s-5 2.24-5 5v2h-1c-1.1 0-2 .9-2 2v10c0 1.1.9 2 2 2h12c1.1 0 2-.9 2-2V9c0-1.1-.9-2-2-2Zm-6 9c-1.1 0-2-.9-2-2s.9-2 2-2 2 .9 2 2-.9 2-2 2Zm3.1-9h-6.2V5c0-1.71 1.39-3.1 3.1-3.1 1.71 0 3.1 1.39 3.1 3.1v2Z" fill="#3C3C3C" fill-opacity=".45"/></svg>