<svg width="60" height="60" fill="none" xmlns="http://www.w3.org/2000/svg"><path fill="#3C3C3C" d="M0 0h60v60H0z"/><g clip-path="url('#clip0_77_1938')" fill="#fff"><path d="M30 57.707a3.56 3.56 0 0 0 3.44-3.04h-7.013A3.56 3.56 0 0 0 30 57.707ZM49.8 49.507l-.453-.4A19.16 19.16 0 0 1 46 45.2a16.84 16.84 0 0 1-1.8-6.413V32.2c-.005-.8-.077-1.598-.213-2.387A10 10 0 0 1 36 20v-.84a14.094 14.094 0 0 0-4.426-1.333v-1.68a1.78 1.78 0 0 0-3.56 0v1.746a14.413 14.413 0 0 0-12.4 14.307v6.587a16.84 16.84 0 0 1-1.8 6.413 19.2 19.2 0 0 1-3.294 3.907l-.453.4v3.76H49.8v-3.76ZM46 26.667a6.667 6.667 0 1 0 0-13.334 6.667 6.667 0 0 0 0 13.334Z"/></g><defs><clipPath id="clip0_77_1938"><path fill="#fff" transform="translate(6 12)" d="M0 0h48v48H0z"/></clipPath></defs></svg>