<svg width="45" height="45" fill="none" xmlns="http://www.w3.org/2000/svg"><g clip-path="url('#clip0_92_3393')"><path d="M22.5 0C10.072 0 0 10.072 0 22.5S10.072 45 22.5 45 45 34.928 45 22.5 34.928 0 22.5 0Zm-5.625 33.75A11.238 11.238 0 0 1 5.625 22.5c0-6.224 5.029-11.25 11.25-11.25 3.04 0 5.58 1.108 7.54 2.945l-3.06 2.936c-.835-.799-2.295-1.733-4.483-1.733-3.842 0-6.978 3.181-6.978 7.102 0 3.92 3.14 7.102 6.978 7.102 4.455 0 6.126-3.198 6.382-4.852h-6.382v-3.859h10.626c.095.563.177 1.125.177 1.865 0 6.432-4.303 10.994-10.8 10.994ZM36.563 22.5v2.813H33.75V22.5h-2.813v-2.813h2.813v-2.812h2.813v2.813h2.812V22.5h-2.813Z" fill="#3C3C3C"/></g><defs><clipPath id="clip0_92_3393"><path fill="#fff" d="M0 0h45v45H0z"/></clipPath></defs></svg>