<svg width="24" height="25" fill="none" xmlns="http://www.w3.org/2000/svg"><path d="M18.504 21.659H5.976a.963.963 0 0 1-.964-.964v-5.782h14.456v5.782a.963.963 0 0 1-.964.964Z" fill="url('#paint0_linear_11_3671')"/><path d="M18.504 20.213H5.976a.963.963 0 0 1-.964-.964v-5.3h14.456v5.3a.963.963 0 0 1-.964.964Z" fill="url('#paint1_linear_11_3671')"/><path d="M18.504 18.767H5.976a.963.963 0 0 1-.964-.963V4.794c0-.533.431-.964.964-.964h12.528c.533 0 .964.431.964.964v13.01a.963.963 0 0 1-.964.963Z" fill="url('#paint2_linear_11_3671')"/><path d="M17.3 10.094H7.18a.241.241 0 0 1-.24-.24v-.965c0-.133.107-.24.24-.24H17.3c.132 0 .24.107.24.24v.964c0 .133-.108.241-.24.241ZM17.3 12.985H7.18a.241.241 0 0 1-.24-.24v-.964c0-.133.107-.241.24-.241H17.3c.132 0 .24.108.24.24v.964c0 .133-.108.241-.24.241ZM17.3 15.876H7.18a.241.241 0 0 1-.24-.24v-.964c0-.133.107-.241.24-.241H17.3c.132 0 .24.108.24.24v.964a.241.241 0 0 1-.24.241ZM17.3 5.276a.723.723 0 0 1-.723-.723v-.964a.723.723 0 0 1 1.445 0v.964a.723.723 0 0 1-.723.723ZM13.926 5.276a.723.723 0 0 1-.722-.723v-.964a.723.723 0 0 1 1.445 0v.964a.723.723 0 0 1-.723.723ZM10.553 5.276a.723.723 0 0 1-.722-.723v-.964a.723.723 0 0 1 1.445 0v.964a.723.723 0 0 1-.723.723ZM7.18 5.276a.723.723 0 0 1-.722-.723v-.964a.723.723 0 0 1 1.445 0v.964a.723.723 0 0 1-.723.723Z" fill="#057093"/><defs><linearGradient id="paint0_linear_11_3671" x1="12.24" y1="18.254" x2="12.24" y2="20.903" gradientUnits="userSpaceOnUse"><stop offset=".435" stop-color="#382010"/><stop offset="1" stop-color="#B0622B"/></linearGradient><linearGradient id="paint1_linear_11_3671" x1="12.24" y1="17.059" x2="12.24" y2="19.52" gradientUnits="userSpaceOnUse"><stop offset=".441" stop-color="#999998"/><stop offset=".653" stop-color="#C1C1C0"/><stop offset=".88" stop-color="#E5E5E5"/><stop offset="1" stop-color="#F3F3F3"/></linearGradient><linearGradient id="paint2_linear_11_3671" x1="5.253" y1="3.887" x2="18.858" y2="18.32" gradientUnits="userSpaceOnUse"><stop stop-color="#7DD8F3"/><stop offset="1" stop-color="#45B0D0"/></linearGradient></defs></svg>