<svg width="48" height="48" fill="none" xmlns="http://www.w3.org/2000/svg"><path d="M14 30c1.667 0 3.083-.583 4.25-1.75C19.417 27.083 20 25.667 20 24c0-1.667-.583-3.083-1.75-4.25C17.083 18.583 15.667 18 14 18c-1.667 0-3.083.583-4.25 1.75C8.583 20.917 8 22.333 8 24c0 1.667.583 3.083 1.75 4.25C10.917 29.417 12.333 30 14 30Zm0 6c-3.333 0-6.167-1.167-8.5-3.5S2 27.333 2 24s1.167-6.167 3.5-8.5S10.667 12 14 12c2.7 0 5.059.767 7.076 2.3 2.016 1.533 3.424 3.433 4.224 5.7h15.9c.267 0 .525.05.776.15.25.1.457.233.624.4l1.95 1.95a2 2 0 0 1 .45.674c.1.25.15.51.15.776 0 .267-.041.517-.124.75-.084.233-.226.45-.426.65l-5.2 5.2c-.2.2-.417.35-.65.45-.233.1-.483.15-.75.15s-.517-.042-.75-.126a1.744 1.744 0 0 1-.65-.424L34 28l-2.6 2.6c-.2.2-.417.341-.65.424a2.197 2.197 0 0 1-.75.126c-.267 0-.517-.042-.75-.126a1.744 1.744 0 0 1-.65-.424L26 28h-.7c-.833 2.4-2.283 4.333-4.35 5.8C18.883 35.267 16.567 36 14 36Z" fill="#000"/></svg>