<svg width="62" height="62" fill="none" xmlns="http://www.w3.org/2000/svg"><path d="M31 7.75C18.181 7.75 7.75 18.181 7.75 31S18.181 54.25 31 54.25 54.25 43.819 54.25 31 43.819 7.75 31 7.75Zm0 3.875c10.724 0 19.375 8.65 19.375 19.375a19.33 19.33 0 0 1-16.492 19.14V36.65h5.518l.866-5.605h-6.384v-3.062c0-2.325.765-4.392 2.941-4.392h3.497v-4.89c-.614-.084-1.914-.264-4.37-.264-5.131 0-8.138 2.709-8.138 8.882v3.726h-5.274v5.605h5.274v13.442A19.326 19.326 0 0 1 11.625 31c0-10.724 8.65-19.375 19.375-19.375Z" fill="#3C3C3C"/></svg>