<svg width="48" height="48" fill="none" xmlns="http://www.w3.org/2000/svg"><g clip-path="url('#clip0_90_3300')"><g clip-path="url('#clip1_90_3300')" fill="#fff"><path d="M25.895 45.707a3.56 3.56 0 0 0 3.44-3.04H22.32a3.56 3.56 0 0 0 3.574 3.04ZM45.694 37.507l-.453-.4a19.16 19.16 0 0 1-3.346-3.907 16.84 16.84 0 0 1-1.8-6.413V20.2c-.006-.8-.077-1.598-.214-2.387A10 10 0 0 1 31.895 8v-.84a14.094 14.094 0 0 0-4.427-1.333v-1.68a1.78 1.78 0 0 0-3.56 0v1.746a14.413 14.413 0 0 0-12.4 14.307v6.587a16.838 16.838 0 0 1-1.8 6.413 19.2 19.2 0 0 1-3.293 3.907l-.454.4v3.76h39.733v-3.76ZM41.894 14.667a6.667 6.667 0 1 0 0-13.334 6.667 6.667 0 0 0 0 13.334Z"/></g></g><defs><clipPath id="clip0_90_3300"><path fill="#fff" d="M0 0h48v48H0z"/></clipPath><clipPath id="clip1_90_3300"><path fill="#fff" transform="translate(1.895)" d="M0 0h48v48H0z"/></clipPath></defs></svg>