<svg width="52" height="52" fill="none" xmlns="http://www.w3.org/2000/svg"><g opacity=".99" fill-rule="evenodd" clip-rule="evenodd" fill="#fff"><path d="M26 8.667c-9.573 0-17.333 7.76-17.333 17.333 0 9.573 7.76 17.334 17.333 17.334 9.573 0 17.333-7.76 17.333-17.334 0-9.573-7.76-17.333-17.333-17.333ZM4.333 26c0-11.966 9.7-21.666 21.667-21.666 11.966 0 21.667 9.7 21.667 21.666 0 11.966-9.7 21.667-21.667 21.667-11.966 0-21.667-9.7-21.667-21.667Z"/><path d="M24.122 20.585a2.167 2.167 0 1 1-3.751-2.17 6.5 6.5 0 0 1 12.13 3.252c0 2.378-1.46 4.32-3.25 5.416-1.44.88-.543 3.25-3.257 3.25a2.167 2.167 0 0 1-2.155-2.392c.06-1.146.571-2.078 1.128-2.756.587-.716 1.36-1.3 1.95-1.652 3.287-1.953-.722-5.95-2.795-2.948ZM25.994 32.5a2.167 2.167 0 1 0 0 4.333 2.167 2.167 0 0 0 0-4.333Z"/></g></svg>