<svg width="42" height="42" fill="none" xmlns="http://www.w3.org/2000/svg"><path d="M21.008 15.282c-1.482 0-2.87.544-3.92 1.54-1.046.995-1.626 2.309-1.626 3.712 0 1.404.58 2.718 1.626 3.713a5.679 5.679 0 0 0 3.92 1.54 5.68 5.68 0 0 0 3.92-1.54c1.046-.995 1.626-2.31 1.626-3.713s-.58-2.717-1.626-3.713a5.527 5.527 0 0 0-1.797-1.142 5.767 5.767 0 0 0-2.123-.397Zm20.434 11.054L38.2 23.712a15.99 15.99 0 0 0 .233-2.708c0-.906-.079-1.822-.233-2.709l3.242-2.624c.245-.198.42-.463.502-.758a1.429 1.429 0 0 0-.041-.894l-.045-.122a20.535 20.535 0 0 0-3.945-6.464l-.09-.098a1.605 1.605 0 0 0-.796-.479c-.31-.08-.64-.068-.943.033L32.06 8.245a17.567 17.567 0 0 0-4.936-2.699l-.778-3.985a1.48 1.48 0 0 0-.441-.792 1.62 1.62 0 0 0-.838-.415l-.134-.023a23.56 23.56 0 0 0-7.87 0l-.134.023a1.62 1.62 0 0 0-.837.415 1.48 1.48 0 0 0-.441.792l-.783 4.004a17.775 17.775 0 0 0-4.902 2.69L5.912 6.889a1.67 1.67 0 0 0-.943-.034c-.31.08-.589.247-.796.48l-.09.098a20.695 20.695 0 0 0-3.945 6.464l-.044.122a1.456 1.456 0 0 0 .46 1.652l3.282 2.652A15.648 15.648 0 0 0 3.608 21c0 .901.074 1.803.228 2.676L.565 26.327c-.245.198-.42.463-.503.758-.082.295-.068.607.042.894l.044.122a20.59 20.59 0 0 0 3.945 6.464l.09.099c.208.232.486.399.796.478.31.08.64.069.943-.032l4.054-1.366a17.414 17.414 0 0 0 4.901 2.69l.784 4.003c.058.3.212.577.44.792.229.216.521.36.838.415l.134.023c2.602.444 5.268.444 7.87 0l.134-.023a1.62 1.62 0 0 0 .838-.415 1.48 1.48 0 0 0 .44-.792l.779-3.985a17.681 17.681 0 0 0 4.936-2.699l4.024 1.357c.304.101.633.113.943.033.311-.08.589-.247.797-.48l.089-.098a20.697 20.697 0 0 0 3.945-6.464l.044-.122a1.464 1.464 0 0 0-.47-1.643Zm-20.434 2.45c-4.812 0-8.713-3.694-8.713-8.252 0-4.558 3.9-8.252 8.713-8.252 4.812 0 8.713 3.694 8.713 8.252 0 4.558-3.9 8.253-8.713 8.253Z" fill="#fff"/></svg>