<svg width="576" height="593" viewBox="0 0 576 593" fill="none" xmlns="http://www.w3.org/2000/svg">
<path d="M324 511.5L309 502.84V520.16L324 511.5ZM252 513H310.5V510H252V513Z" fill="#9D9D9D"/>
<path d="M576 81L561 72.3397V89.6603L576 81ZM504 82.5H562.5V79.5H504V82.5Z" fill="#9D9D9D"/>
<path d="M576 367.5L561 358.84V376.16L576 367.5ZM504 369H562.5V366H504V369Z" fill="#9D9D9D"/>
<path d="M324 367.5L309 358.84V376.16L324 367.5ZM252 369H310.5V366H252V369Z" fill="#9D9D9D"/>
<path d="M324 295.5L309 286.84V304.16L324 295.5ZM252 297H310.5V294H252V297Z" fill="#9D9D9D"/>
<path d="M324 441L309 432.34V449.66L324 441ZM286.5 382.5V426H289.5V382.5H286.5ZM303 442.5H310.5V439.5H303V442.5ZM273 366H252V369H273V366ZM286.5 426C286.5 435.113 293.887 442.5 303 442.5V439.5C295.544 439.5 289.5 433.456 289.5 426H286.5ZM289.5 382.5C289.5 373.387 282.113 366 273 366V369C280.456 369 286.5 375.044 286.5 382.5H289.5Z" fill="#9D9D9D"/>
<path d="M576 441L561 432.34V449.66L576 441ZM538.5 382.5V426H541.5V382.5H538.5ZM555 442.5H562.5V439.5H555V442.5ZM525 366H504V369H525V366ZM538.5 426C538.5 435.113 545.887 442.5 555 442.5V439.5C547.544 439.5 541.5 433.456 541.5 426H538.5ZM541.5 382.5C541.5 373.387 534.113 366 525 366V369C532.456 369 538.5 375.044 538.5 382.5H541.5Z" fill="#9D9D9D"/>
<path d="M576 514.5L561 505.84V523.16L576 514.5ZM538.5 382.5V499.5H541.5V382.5H538.5ZM555 516H562.5V513H555V516ZM525 366H504V369H525V366ZM538.5 499.5C538.5 508.613 545.887 516 555 516V513C547.544 513 541.5 506.956 541.5 499.5H538.5ZM541.5 382.5C541.5 373.387 534.113 366 525 366V369C532.456 369 538.5 375.044 538.5 382.5H541.5Z" fill="#9D9D9D"/>
<path d="M576 295.5L561 304.16V286.84L576 295.5ZM525 367.5V369V367.5ZM538.5 352.5V310.5H541.5V352.5H538.5ZM555 294H562.5V297H555V294ZM525 369H504V366H525V369ZM538.5 310.5C538.5 301.387 545.887 294 555 294V297C547.544 297 541.5 303.044 541.5 310.5H538.5ZM541.5 352.5C541.5 361.613 534.113 369 525 369V366C532.456 366 538.5 359.956 538.5 352.5H541.5Z" fill="#9D9D9D"/>
<path d="M576 9L561 17.6603V0.339745L576 9ZM525 81V82.5V81ZM538.5 66V24H541.5V66H538.5ZM555 7.5H562.5V10.5H555V7.5ZM525 82.5H504V79.5H525V82.5ZM538.5 24C538.5 14.8873 545.887 7.5 555 7.5V10.5C547.544 10.5 541.5 16.5442 541.5 24H538.5ZM541.5 66C541.5 75.1127 534.113 82.5 525 82.5V79.5C532.456 79.5 538.5 73.4558 538.5 66H541.5Z" fill="#9D9D9D"/>
<path d="M576 153L561 144.34V161.66L576 153ZM525 81V79.5V81ZM538.5 96V138H541.5V96H538.5ZM555 154.5H562.5V151.5H555V154.5ZM525 79.5H504V82.5H525V79.5ZM538.5 138C538.5 147.113 545.887 154.5 555 154.5V151.5C547.544 151.5 541.5 145.456 541.5 138H538.5ZM541.5 96C541.5 86.8873 534.113 79.5 525 79.5V82.5C532.456 82.5 538.5 88.5442 538.5 96H541.5Z" fill="#9D9D9D"/>
<path d="M324 81L309 89.6603V72.3398L324 81ZM273 295.5V297V295.5ZM286.5 280.5V96H289.5V280.5H286.5ZM303 79.5H310.5V82.5H303V79.5ZM273 297H252V294H273V297ZM286.5 96C286.5 86.8873 293.887 79.5 303 79.5V82.5C295.544 82.5 289.5 88.5442 289.5 96H286.5ZM289.5 280.5C289.5 289.613 282.113 297 273 297V294C280.456 294 286.5 287.956 286.5 280.5H289.5Z" fill="#9D9D9D"/>
<path d="M324 151.5L309 160.16V142.84L324 151.5ZM286.5 280.5V166.5H289.5V280.5H286.5ZM303 150H310.5V153H303V150ZM273 297H252V294H273V297ZM286.5 166.5C286.5 157.387 293.887 150 303 150V153C295.544 153 289.5 159.044 289.5 166.5H286.5ZM289.5 280.5C289.5 289.613 282.113 297 273 297V294C280.456 294 286.5 287.956 286.5 280.5H289.5Z" fill="#9D9D9D"/>
<path d="M324 223.5L309 232.16V214.84L324 223.5ZM273 295.5V297V295.5ZM286.5 280.5V238.5H289.5V280.5H286.5ZM303 222H310.5V225H303V222ZM273 297H252V294H273V297ZM286.5 238.5C286.5 229.387 293.887 222 303 222V225C295.544 225 289.5 231.044 289.5 238.5H286.5ZM289.5 280.5C289.5 289.613 282.113 297 273 297V294C280.456 294 286.5 287.956 286.5 280.5H289.5Z" fill="#9D9D9D"/>
<path d="M72 295.5L57 286.84V304.16L72 295.5ZM0 297H58.5V294H0V297Z" fill="#9D9D9D"/>
<path d="M72 367.5L57 358.84V376.16L72 367.5ZM34.5 295.5V352.5H37.5V295.5H34.5ZM51 369H58.5V366H51V369ZM34.5 352.5C34.5 361.613 41.8873 369 51 369V366C43.5442 366 37.5 359.956 37.5 352.5H34.5Z" fill="#9D9D9D"/>
<path d="M72 441L57 432.34V449.66L72 441ZM34.5 351V426H37.5V351H34.5ZM51 442.5H58.5V439.5H51V442.5ZM34.5 426C34.5 435.113 41.8873 442.5 51 442.5V439.5C43.5442 439.5 37.5 433.456 37.5 426H34.5Z" fill="#9D9D9D"/>
<path d="M72 514.5L57 505.84V523.16L72 514.5ZM34.5 424.5V499.5H37.5V424.5H34.5ZM51 516H58.5V513H51V516ZM34.5 499.5C34.5 508.613 41.8873 516 51 516V513C43.5442 513 37.5 506.956 37.5 499.5H34.5Z" fill="#9D9D9D"/>
<path d="M72 584.25L57 575.59V592.91L72 584.25ZM34.5 494.25V569.25H37.5V494.25H34.5ZM51 585.75H58.5V582.75H51V585.75ZM34.5 569.25C34.5 578.363 41.8873 585.75 51 585.75V582.75C43.5442 582.75 37.5 576.706 37.5 569.25H34.5Z" fill="#9D9D9D"/>
</svg>
