<svg width="49" height="31" viewBox="0 0 49 31" fill="none" xmlns="http://www.w3.org/2000/svg">
<g filter="url(#filter0_d_16_4039)">
<path d="M23.1281 27.1733C20.0551 27.1733 17.4497 26.5155 15.3119 25.1999C13.1741 23.8844 12.1052 22.281 12.1052 20.3899V7.43993C12.1052 6.08326 12.8902 4.92187 14.4601 3.95576C16.0301 2.98965 17.9173 2.50659 20.1219 2.50659C22.3265 2.50659 24.2137 2.98965 25.7837 3.95576C27.3536 4.92187 28.1386 6.08326 28.1386 7.43993V19.1566C28.1386 20.0199 27.6542 20.7496 26.6855 21.3458C25.7169 21.9419 24.5311 22.2399 23.1281 22.2399C21.7252 22.2399 20.5394 21.9419 19.5707 21.3458C18.6021 20.7496 18.1177 20.0199 18.1177 19.1566V8.36493C18.1177 8.0977 18.26 7.87694 18.5446 7.70262C18.8279 7.52749 19.1866 7.43993 19.6208 7.43993C20.0551 7.43993 20.4145 7.52749 20.6991 7.70262C20.9823 7.87694 21.124 8.0977 21.124 8.36493V19.1566C21.124 19.506 21.3164 19.7987 21.7012 20.0347C22.0846 20.2715 22.5603 20.3899 23.1281 20.3899C23.696 20.3899 24.1723 20.2715 24.5571 20.0347C24.9406 19.7987 25.1323 19.506 25.1323 19.1566V7.43993C25.1323 6.57659 24.648 5.84687 23.6793 5.25076C22.7106 4.65465 21.5248 4.35659 20.1219 4.35659C18.719 4.35659 17.5332 4.65465 16.5645 5.25076C15.5958 5.84687 15.1115 6.57659 15.1115 7.43993V20.3899C15.1115 21.7466 15.8964 22.908 17.4664 23.8741C19.0363 24.8402 20.9236 25.3233 23.1281 25.3233C25.3327 25.3233 27.22 24.8402 28.7899 23.8741C30.3598 22.908 31.1448 21.7466 31.1448 20.3899V8.36493C31.1448 8.0977 31.2871 7.87694 31.5717 7.70262C31.855 7.52749 32.2137 7.43993 32.6479 7.43993C33.0822 7.43993 33.4416 7.52749 33.7262 7.70262C34.0094 7.87694 34.1511 8.0977 34.1511 8.36493V20.3899C34.1511 22.281 33.0822 23.8844 30.9444 25.1999C28.8066 26.5155 26.2012 27.1733 23.1281 27.1733Z" fill="black"/>
</g>
<defs>
<filter id="filter0_d_16_4039" x="-0.659922" y="0.0400391" width="49.5801" height="33.3001" filterUnits="userSpaceOnUse" color-interpolation-filters="sRGB">
<feFlood flood-opacity="0" result="BackgroundImageFix"/>
<feColorMatrix in="SourceAlpha" type="matrix" values="0 0 0 0 0 0 0 0 0 0 0 0 0 0 0 0 0 0 127 0" result="hardAlpha"/>
<feOffset dy="2.96"/>
<feGaussianBlur stdDeviation="0.37"/>
<feComposite in2="hardAlpha" operator="out"/>
<feColorMatrix type="matrix" values="0 0 0 0 0 0 0 0 0 0 0 0 0 0 0 0 0 0 1 0"/>
<feBlend mode="normal" in2="BackgroundImageFix" result="effect1_dropShadow_16_4039"/>
<feBlend mode="normal" in="SourceGraphic" in2="effect1_dropShadow_16_4039" result="shape"/>
</filter>
</defs>
</svg>
