<svg width="99" height="99" viewBox="0 0 99 99" fill="none" xmlns="http://www.w3.org/2000/svg">
<path d="M27.9737 59.2947C27.9737 60.8374 27.5162 62.3455 26.659 63.6281C25.8019 64.9108 24.5836 65.9105 23.1583 66.5007C21.733 67.0909 20.1646 67.2452 18.6516 66.944C17.1386 66.6428 15.7489 65.8997 14.6583 64.8086C13.5676 63.7175 12.8251 62.3275 12.5245 60.8144C12.2239 59.3013 12.3788 57.733 12.9696 56.3079C13.5603 54.8828 14.5605 53.6649 15.8435 52.8083C17.1265 51.9517 18.6347 51.4948 20.1774 51.4954H27.9737V59.2947ZM31.9027 59.2947C31.9027 57.2258 32.7246 55.2416 34.1876 53.7787C35.6505 52.3157 37.6347 51.4938 39.7036 51.4938C41.7725 51.4938 43.7567 52.3157 45.2197 53.7787C46.6826 55.2416 47.5045 57.2258 47.5045 59.2947V78.8256C47.5045 80.8941 46.6828 82.8779 45.2201 84.3405C43.7575 85.8032 41.7737 86.6249 39.7052 86.6249C37.6367 86.6249 35.6529 85.8032 34.1902 84.3405C32.7275 82.8779 31.9058 80.8941 31.9058 78.8256L31.9027 59.2947ZM39.7052 27.9736C38.1625 27.9736 36.6544 27.5161 35.3718 26.659C34.0891 25.8018 33.0894 24.5836 32.4992 23.1582C31.909 21.7329 31.7547 20.1646 32.0559 18.6515C32.3571 17.1385 33.1002 15.7488 34.1913 14.6582C35.2824 13.5676 36.6724 12.825 38.1855 12.5244C39.6986 12.2238 41.2669 12.3787 42.692 12.9695C44.1171 13.5603 45.335 14.5604 46.1916 15.8434C47.0482 17.1264 47.5051 18.6347 47.5045 20.1774V27.9736H39.7052ZM39.7052 31.9027C41.7741 31.9027 43.7583 32.7245 45.2212 34.1875C46.6842 35.6504 47.5061 37.6346 47.5061 39.7036C47.5061 41.7725 46.6842 43.7567 45.2212 45.2196C43.7583 46.6826 41.7741 47.5044 39.7052 47.5044H20.1712C18.1027 47.5044 16.1189 46.6827 14.6563 45.2201C13.1936 43.7574 12.3719 41.7736 12.3719 39.7051C12.3719 37.6366 13.1936 35.6528 14.6563 34.1901C16.1189 32.7275 18.1027 31.9058 20.1712 31.9058L39.7052 31.9027ZM71.0263 39.7051C71.0263 38.1624 71.4838 36.6544 72.3409 35.3717C73.1981 34.089 74.4163 33.0894 75.8417 32.4992C77.267 31.9089 78.8353 31.7547 80.3484 32.0559C81.8614 32.357 83.2511 33.1002 84.3417 34.1912C85.4323 35.2823 86.1749 36.6723 86.4755 38.1854C86.7761 39.6986 86.6212 41.2668 86.0304 42.6919C85.4396 44.117 84.4395 45.3349 83.1565 46.1915C81.8735 47.0482 80.3652 47.5051 78.8225 47.5044H71.0263V39.7051ZM67.0972 39.7051C67.0972 41.774 66.2754 43.7582 64.8124 45.2212C63.3495 46.6841 61.3653 47.506 59.2963 47.506C57.2274 47.506 55.2432 46.6841 53.7803 45.2212C52.3173 43.7582 51.4954 41.774 51.4954 39.7051V20.1712C51.4954 18.1027 52.3172 16.1189 53.7798 14.6562C55.2425 13.1935 57.2263 12.3718 59.2948 12.3718C61.3633 12.3718 63.3471 13.1935 64.8098 14.6562C66.2724 16.1189 67.0941 18.1027 67.0941 20.1712L67.0972 39.7051ZM59.2948 71.0262C60.8375 71.0262 62.3455 71.4837 63.6282 72.3409C64.9109 73.198 65.9105 74.4163 66.5007 75.8416C67.091 77.2669 67.2452 78.8353 66.944 80.3483C66.6429 81.8613 65.8997 83.251 64.8087 84.3416C63.7176 85.4323 62.3276 86.1748 60.8145 86.4754C59.3013 86.776 57.7331 86.6211 56.308 86.0303C54.8829 85.4396 53.665 84.4394 52.8084 83.1564C51.9517 81.8734 51.4948 80.3652 51.4954 78.8225V71.0262H59.2948ZM59.2948 67.0972C57.2259 67.0972 55.2417 66.2753 53.7787 64.8123C52.3158 63.3494 51.4939 61.3652 51.4939 59.2963C51.4939 57.2274 52.3158 55.2432 53.7787 53.7802C55.2417 52.3173 57.2259 51.4954 59.2948 51.4954H78.8256C80.8942 51.4954 82.8779 52.3171 84.3406 53.7798C85.8033 55.2424 86.625 57.2262 86.625 59.2947C86.625 61.3632 85.8033 63.347 84.3406 64.8097C82.8779 66.2724 80.8942 67.0941 78.8256 67.0941L59.2948 67.0972Z" fill="#3C3C3C"/>
</svg>
