<svg width="99" height="99" viewBox="0 0 99 99" fill="none" xmlns="http://www.w3.org/2000/svg">
<path d="M27.9737 59.2949C27.9737 60.8376 27.5162 62.3456 26.659 63.6283C25.8019 64.9109 24.5836 65.9106 23.1583 66.5008C21.733 67.091 20.1646 67.2453 18.6516 66.9441C17.1386 66.6429 15.7489 65.8998 14.6583 64.8087C13.5676 63.7177 12.8251 62.3277 12.5245 60.8145C12.2239 59.3014 12.3788 57.7331 12.9696 56.308C13.5603 54.8829 14.5605 53.6651 15.8435 52.8084C17.1265 51.9518 18.6347 51.4949 20.1774 51.4955H27.9737V59.2949ZM31.9027 59.2949C31.9027 57.2259 32.7246 55.2417 34.1876 53.7788C35.6505 52.3158 37.6347 51.494 39.7036 51.494C41.7725 51.494 43.7567 52.3158 45.2197 53.7788C46.6826 55.2417 47.5045 57.2259 47.5045 59.2949V78.8257C47.5045 80.8942 46.6828 82.878 45.2201 84.3407C43.7575 85.8033 41.7737 86.625 39.7052 86.625C37.6367 86.625 35.6529 85.8033 34.1902 84.3407C32.7275 82.878 31.9058 80.8942 31.9058 78.8257L31.9027 59.2949ZM39.7052 27.9737C38.1625 27.9737 36.6544 27.5162 35.3718 26.6591C34.0891 25.8019 33.0894 24.5837 32.4992 23.1583C31.909 21.733 31.7547 20.1647 32.0559 18.6517C32.3571 17.1387 33.1002 15.749 34.1913 14.6583C35.2824 13.5677 36.6724 12.8251 38.1855 12.5245C39.6986 12.2239 41.2669 12.3788 42.692 12.9696C44.1171 13.5604 45.335 14.5606 46.1916 15.8436C47.0482 17.1266 47.5051 18.6348 47.5045 20.1775V27.9737H39.7052ZM39.7052 31.9028C41.7741 31.9028 43.7583 32.7247 45.2212 34.1876C46.6842 35.6506 47.5061 37.6348 47.5061 39.7037C47.5061 41.7726 46.6842 43.7568 45.2212 45.2197C43.7583 46.6827 41.7741 47.5046 39.7052 47.5046H20.1712C18.1027 47.5046 16.1189 46.6829 14.6563 45.2202C13.1936 43.7575 12.3719 41.7737 12.3719 39.7052C12.3719 37.6367 13.1936 35.6529 14.6563 34.1903C16.1189 32.7276 18.1027 31.9059 20.1712 31.9059L39.7052 31.9028ZM71.0263 39.7052C71.0263 38.1625 71.4838 36.6545 72.3409 35.3718C73.1981 34.0892 74.4163 33.0895 75.8417 32.4993C77.267 31.9091 78.8353 31.7548 80.3484 32.056C81.8614 32.3572 83.2511 33.1003 84.3417 34.1914C85.4323 35.2824 86.1749 36.6724 86.4755 38.1855C86.7761 39.6987 86.6212 41.267 86.0304 42.6921C85.4396 44.1171 84.4395 45.335 83.1565 46.1917C81.8735 47.0483 80.3652 47.5052 78.8225 47.5046H71.0263V39.7052ZM67.0972 39.7052C67.0972 41.7742 66.2754 43.7583 64.8124 45.2213C63.3495 46.6842 61.3653 47.5061 59.2963 47.5061C57.2274 47.5061 55.2432 46.6842 53.7803 45.2213C52.3173 43.7583 51.4954 41.7742 51.4954 39.7052V20.1713C51.4954 18.1028 52.3172 16.119 53.7798 14.6563C55.2425 13.1937 57.2263 12.3719 59.2948 12.3719C61.3633 12.3719 63.3471 13.1937 64.8098 14.6563C66.2724 16.119 67.0941 18.1028 67.0941 20.1713L67.0972 39.7052ZM59.2948 71.0264C60.8375 71.0264 62.3455 71.4839 63.6282 72.341C64.9109 73.1981 65.9105 74.4164 66.5007 75.8417C67.091 77.2671 67.2452 78.8354 66.944 80.3484C66.6429 81.8614 65.8997 83.2511 64.8087 84.3418C63.7176 85.4324 62.3276 86.175 60.8145 86.4756C59.3013 86.7761 57.7331 86.6213 56.308 86.0305C54.8829 85.4397 53.665 84.4395 52.8084 83.1565C51.9517 81.8735 51.4948 80.3653 51.4954 78.8226V71.0264H59.2948ZM59.2948 67.0973C57.2259 67.0973 55.2417 66.2754 53.7787 64.8125C52.3158 63.3495 51.4939 61.3653 51.4939 59.2964C51.4939 57.2275 52.3158 55.2433 53.7787 53.7803C55.2417 52.3174 57.2259 51.4955 59.2948 51.4955H78.8256C80.8942 51.4955 82.8779 52.3172 84.3406 53.7799C85.8033 55.2425 86.625 57.2263 86.625 59.2949C86.625 61.3634 85.8033 63.3472 84.3406 64.8098C82.8779 66.2725 80.8942 67.0942 78.8256 67.0942L59.2948 67.0973Z" fill="white"/>
</svg>
