<svg width="41" height="41" viewBox="0 0 41 41" fill="none" xmlns="http://www.w3.org/2000/svg">
<path d="M21.832 30.875C21.832 31.1879 21.7392 31.4938 21.5654 31.7539C21.3916 32.0141 21.1445 32.2169 20.8554 32.3366C20.5663 32.4563 20.2482 32.4877 19.9414 32.4266C19.6345 32.3656 19.3526 32.2149 19.1313 31.9937C18.9101 31.7724 18.7594 31.4905 18.6984 31.1836C18.6373 30.8768 18.6687 30.5587 18.7884 30.2696C18.9081 29.9805 19.1109 29.7334 19.3711 29.5596C19.6312 29.3858 19.9371 29.293 20.25 29.293C20.6696 29.293 21.072 29.4596 21.3687 29.7563C21.6654 30.053 21.832 30.4554 21.832 30.875ZM20.25 12.207C20.5629 12.207 20.8688 12.1142 21.1289 11.9404C21.3891 11.7666 21.5919 11.5195 21.7116 11.2304C21.8313 10.9413 21.8627 10.6232 21.8016 10.3164C21.7406 10.0095 21.5899 9.72759 21.3687 9.50634C21.1474 9.28508 20.8655 9.13441 20.5586 9.07337C20.2518 9.01232 19.9337 9.04365 19.6446 9.16339C19.3555 9.28313 19.1084 9.48591 18.9346 9.74607C18.7608 10.0062 18.668 10.3121 18.668 10.625C18.668 11.0446 18.8346 11.447 19.1313 11.7437C19.428 12.0404 19.8304 12.207 20.25 12.207ZM20.25 19.168C19.9371 19.168 19.6312 19.2608 19.3711 19.4346C19.1109 19.6084 18.9081 19.8555 18.7884 20.1446C18.6687 20.4337 18.6373 20.7518 18.6984 21.0586C18.7594 21.3655 18.9101 21.6474 19.1313 21.8687C19.3526 22.0899 19.6345 22.2406 19.9414 22.3016C20.2482 22.3627 20.5663 22.3313 20.8554 22.2116C21.1445 22.0919 21.3916 21.8891 21.5654 21.6289C21.7392 21.3688 21.832 21.0629 21.832 20.75C21.832 20.3304 21.6654 19.928 21.3687 19.6313C21.072 19.3346 20.6696 19.168 20.25 19.168Z" fill="black"/>
</svg>
