<svg width="46" height="46" viewBox="0 0 46 46" fill="none" xmlns="http://www.w3.org/2000/svg">
<g clip-path="url(#clip0_92_3395)">
<path d="M23 0.919983C10.8054 0.919983 0.92 10.8054 0.92 23C0.92 35.1946 10.8054 45.08 23 45.08C35.1946 45.08 45.08 35.1946 45.08 23C45.08 10.8054 35.1946 0.919983 23 0.919983ZM17.595 32.1517H13.1238V17.7629H17.595V32.1517ZM15.3318 15.9965C13.9196 15.9965 13.0065 14.996 13.0065 13.7586C13.0065 12.4959 13.9472 11.5253 15.3893 11.5253C16.8314 11.5253 17.7146 12.4959 17.7422 13.7586C17.7422 14.996 16.8314 15.9965 15.3318 15.9965ZM33.925 32.1517H29.4538V24.1776C29.4538 22.3215 28.8052 21.0611 27.1883 21.0611C25.9532 21.0611 25.2195 21.9144 24.8952 22.7355C24.7756 23.0276 24.7457 23.4416 24.7457 23.8533V32.1494H20.2722V22.3514C20.2722 20.5551 20.2147 19.0532 20.1549 17.7606H24.0396L24.2443 19.7593H24.334C24.9228 18.8209 26.3649 17.4363 28.7776 17.4363C31.7193 17.4363 33.925 19.4074 33.925 23.644V32.1517Z" fill="#3C3C3C"/>
</g>
<defs>
<clipPath id="clip0_92_3395">
<rect width="46" height="46" fill="white"/>
</clipPath>
</defs>
</svg>
