<svg width="53" height="53" viewBox="0 0 53 53" fill="none" xmlns="http://www.w3.org/2000/svg">
<path fill-rule="evenodd" clip-rule="evenodd" d="M32.443 4.66071C31.4212 4.4154 30.3616 4.41591 28.9593 4.41657L21.5505 4.41664C19.7728 4.41661 18.3057 4.41659 17.1106 4.51424C15.8693 4.61566 14.7282 4.83332 13.6564 5.37942C11.9943 6.2263 10.643 7.57763 9.79612 9.23973C9.25002 10.3115 9.03236 11.4526 8.93094 12.6939C8.83329 13.889 8.83332 15.3561 8.83334 17.1337V35.8662C8.83332 37.6438 8.83329 39.111 8.93094 40.3061C9.03236 41.5474 9.25002 42.6884 9.79612 43.7602C10.643 45.4223 11.9943 46.7737 13.6564 47.6205C14.7282 48.1666 15.8693 48.3843 17.1106 48.4857C18.3057 48.5834 19.7728 48.5833 21.5504 48.5833H31.4496C33.2272 48.5833 34.6943 48.5834 35.8895 48.4857C37.1308 48.3843 38.2718 48.1666 39.3436 47.6205C41.0057 46.7737 42.357 45.4223 43.2039 43.7602C43.75 42.6884 43.9677 41.5474 44.0691 40.3061C44.1667 39.111 44.1667 37.6438 44.1667 35.8662L44.1668 19.624C44.1674 18.2217 44.1679 17.1621 43.9226 16.1404C43.7062 15.2391 43.3493 14.3774 42.865 13.5871C42.316 12.6911 41.5664 11.9423 40.5744 10.9512L37.6322 8.00897C36.6411 7.01694 35.8922 6.26737 34.9963 5.71832C34.2059 5.234 33.3443 4.8771 32.443 4.66071ZM28.7083 8.83331H21.6417C19.7501 8.83331 18.4642 8.83503 17.4702 8.91624C16.5021 8.99534 16.0069 9.13872 15.6616 9.3147C14.8305 9.73814 14.1548 10.4138 13.7314 11.2449C13.5554 11.5902 13.412 12.0854 13.3329 13.0535C13.2517 14.0475 13.25 15.3334 13.25 17.225V35.775C13.25 37.6666 13.2517 38.9525 13.3329 39.9464C13.412 40.9146 13.5554 41.4097 13.7314 41.7551C14.1548 42.5862 14.8305 43.2618 15.6616 43.6853C16.0069 43.8612 16.5021 44.0046 17.4702 44.0837C18.4642 44.1649 19.7501 44.1666 21.6417 44.1666H31.3583C33.25 44.1666 34.5359 44.1649 35.5298 44.0837C36.498 44.0046 36.9931 43.8612 37.3385 43.6853C38.1695 43.2618 38.8452 42.5862 39.2686 41.7551C39.4446 41.4097 39.588 40.9146 39.6671 39.9464C39.7483 38.9525 39.75 37.6666 39.75 35.775V19.875H35.3333C31.6745 19.875 28.7083 16.9089 28.7083 13.25V8.83331ZM38.7783 15.4583C38.5129 15.1445 38.0891 14.7121 37.2922 13.9152L34.6682 11.2912C33.8712 10.4942 33.4388 10.0704 33.125 9.80503V13.25C33.125 14.4696 34.1137 15.4583 35.3333 15.4583H38.7783Z" fill="white"/>
<path d="M28.7083 26.4998C28.7083 25.2802 27.7196 24.2915 26.5 24.2915C25.2804 24.2915 24.2917 25.2802 24.2917 26.4998V28.7082H22.0833C20.8637 28.7082 19.875 29.6969 19.875 30.9165C19.875 32.1361 20.8637 33.1248 22.0833 33.1248H24.2917V35.3332C24.2917 36.5528 25.2804 37.5415 26.5 37.5415C27.7196 37.5415 28.7083 36.5528 28.7083 35.3332V33.1248H30.9167C32.1363 33.1248 33.125 32.1361 33.125 30.9165C33.125 29.6969 32.1363 28.7082 30.9167 28.7082H28.7083V26.4998Z" fill="white"/>
</svg>
