<svg width="43" height="49" viewBox="0 0 43 49" fill="none" xmlns="http://www.w3.org/2000/svg">
<g clip-path="url(#clip0_18_4963)">
<path d="M26.2778 44.9166V26.5416L39.9781 10.8888C40.1817 10.6567 40.3425 10.3807 40.4513 10.0768C40.56 9.77299 40.6143 9.44745 40.6111 9.11934V6.80545C40.6111 6.44446 40.4853 6.09825 40.2613 5.843C40.0373 5.58774 39.7334 5.44434 39.4167 5.44434H3.58333C3.26654 5.44434 2.96273 5.58774 2.73873 5.843C2.51473 6.09825 2.38889 6.44446 2.38889 6.80545V9.0785C2.38911 9.39998 2.44516 9.71823 2.55381 10.0149C2.66246 10.3116 2.82156 10.5808 3.02194 10.8071L16.7222 26.6504V40.5338L26.2778 44.9166Z" fill="black"/>
<path d="M39.99 5.44434H2.96223C2.80591 5.45808 2.65994 5.53867 2.55361 5.66995C2.44727 5.80122 2.38843 5.97346 2.38889 6.15211V8.49322C2.38746 8.73318 2.4279 8.97107 2.50787 9.19305C2.58784 9.41504 2.70575 9.61669 2.85473 9.78628L17.1881 26.1196V39.7307L25.8478 44.6443V26.0924L40.1811 9.75906C40.4553 9.422 40.6088 8.98007 40.6111 8.52045V6.15211C40.6111 5.9644 40.5457 5.78437 40.4292 5.65164C40.3127 5.51891 40.1547 5.44434 39.99 5.44434Z" fill="white"/>
</g>
<defs>
<clipPath id="clip0_18_4963">
<rect width="43" height="49" fill="white"/>
</clipPath>
</defs>
</svg>
