<svg width="43" height="49" viewBox="0 0 43 49" fill="none" xmlns="http://www.w3.org/2000/svg">
<g opacity="0.99" clip-path="url(#clip0_18_4754)">
<path d="M26.2778 44.9166V26.5416L39.9781 10.8888C40.1817 10.6567 40.3426 10.3807 40.4513 10.0768C40.56 9.77299 40.6143 9.44745 40.6111 9.11934V6.80545C40.6111 6.44446 40.4853 6.09825 40.2613 5.843C40.0373 5.58774 39.7335 5.44434 39.4167 5.44434H3.58336C3.26657 5.44434 2.96276 5.58774 2.73876 5.843C2.51476 6.09825 2.38892 6.44446 2.38892 6.80545V9.0785C2.38914 9.39998 2.44519 9.71823 2.55384 10.0149C2.66249 10.3116 2.82159 10.5808 3.02197 10.8071L16.7222 26.6504V40.5338L26.2778 44.9166Z" fill="black"/>
<path d="M39.9899 5.44434H2.96216C2.80585 5.45808 2.65988 5.53867 2.55354 5.66995C2.44721 5.80122 2.38837 5.97346 2.38883 6.15211V8.49322C2.3874 8.73318 2.42784 8.97107 2.50781 9.19305C2.58778 9.41504 2.70569 9.61669 2.85466 9.78628L17.188 26.1196V39.7307L25.8477 44.6443V26.0924L40.1811 9.75906C40.4553 9.422 40.6087 8.98007 40.6111 8.52045V6.15211C40.6111 5.9644 40.5456 5.78437 40.4291 5.65164C40.3127 5.51891 40.1547 5.44434 39.9899 5.44434Z" fill="white"/>
</g>
<defs>
<clipPath id="clip0_18_4754">
<rect width="43" height="49" fill="white"/>
</clipPath>
</defs>
</svg>
