<svg width="171" height="26" viewBox="0 0 171 26" fill="none" xmlns="http://www.w3.org/2000/svg">
<path d="M101.168 17.0293C100.927 17.0293 100.751 17 100.641 16.9414C100.536 16.8763 100.484 16.7786 100.484 16.6484V5.36914C100.484 5.18034 100.523 5.04688 100.602 4.96875C100.686 4.89062 100.82 4.85156 101.002 4.85156H104.518C105.533 4.85156 106.432 5.0957 107.213 5.58398C108.001 6.06576 108.395 6.95443 108.395 8.25C108.395 9.21354 108.17 9.96224 107.721 10.4961C107.271 11.0234 106.767 11.3783 106.207 11.5605C105.647 11.7363 105.143 11.8242 104.693 11.8242H101.998V16.6484C101.998 16.7786 101.943 16.8763 101.832 16.9414C101.721 17 101.549 17.0293 101.314 17.0293H101.168ZM104.713 10.5059C105.006 10.5059 105.312 10.444 105.631 10.3203C105.95 10.1901 106.227 9.95898 106.461 9.62695C106.695 9.28841 106.812 8.82943 106.812 8.25C106.812 7.47526 106.581 6.9349 106.119 6.62891C105.663 6.32292 105.113 6.16992 104.469 6.16992H101.998V10.5059H104.713Z" fill="#3C3C3C" fill-opacity="0.45"/>
<path d="M112.721 17.0977C111.835 17.0977 111.119 16.8796 110.572 16.4434C110.025 16.0072 109.752 15.3594 109.752 14.5C109.752 13.5951 110.029 12.9147 110.582 12.459C111.135 11.9967 111.809 11.7005 112.604 11.5703C113.404 11.4336 114.374 11.3555 115.514 11.3359V10.5156C115.514 10.0794 115.364 9.73112 115.064 9.4707C114.771 9.20378 114.286 9.07031 113.609 9.07031C113.095 9.07031 112.643 9.13216 112.252 9.25586C111.868 9.37305 111.507 9.51628 111.168 9.68555C111.025 9.75716 110.937 9.79297 110.904 9.79297C110.826 9.79297 110.738 9.73763 110.641 9.62695C110.549 9.50977 110.468 9.37956 110.396 9.23633C110.331 9.0931 110.299 8.98893 110.299 8.92383C110.299 8.77409 110.452 8.61133 110.758 8.43555C111.07 8.25977 111.477 8.11328 111.979 7.99609C112.48 7.87891 113.004 7.82031 113.551 7.82031C114.638 7.82031 115.481 8.05794 116.08 8.5332C116.679 9.00846 116.979 9.67578 116.979 10.5352V14.4316C116.979 15.1868 117.011 15.7337 117.076 16.0723C117.148 16.4043 117.184 16.5866 117.184 16.6191C117.184 16.7624 117.073 16.8665 116.852 16.9316C116.637 16.9902 116.435 17.0195 116.246 17.0195C116.09 17.0195 115.973 16.9316 115.895 16.7559C115.823 16.5801 115.751 16.3262 115.68 15.9941L115.641 15.7988C115.283 16.196 114.859 16.5117 114.371 16.7461C113.889 16.9805 113.339 17.0977 112.721 17.0977ZM112.799 15.8379C113.372 15.8379 113.86 15.7337 114.264 15.5254C114.667 15.3171 115.084 15.0208 115.514 14.6367V12.5859C114.654 12.5924 113.948 12.6283 113.395 12.6934C112.841 12.7585 112.356 12.9245 111.939 13.1914C111.523 13.4518 111.314 13.8587 111.314 14.4121C111.314 14.8743 111.438 15.2292 111.686 15.4766C111.939 15.7174 112.311 15.8379 112.799 15.8379Z" fill="#3C3C3C" fill-opacity="0.45"/>
<path d="M121.744 17.166C121.256 17.166 120.8 17.1042 120.377 16.9805C119.954 16.8568 119.615 16.707 119.361 16.5312C119.114 16.349 118.99 16.1895 118.99 16.0527C118.99 15.9876 119.023 15.8835 119.088 15.7402C119.16 15.597 119.241 15.4701 119.332 15.3594C119.43 15.2422 119.518 15.1836 119.596 15.1836C119.615 15.1836 119.674 15.2161 119.771 15.2812C120.032 15.4505 120.305 15.5938 120.592 15.7109C120.885 15.8281 121.233 15.8867 121.637 15.8867C122.77 15.8867 123.336 15.418 123.336 14.4805C123.336 14.2135 123.281 13.9889 123.17 13.8066C123.066 13.6243 122.887 13.4648 122.633 13.3281C122.385 13.1849 122.044 13.0482 121.607 12.918C120.982 12.7357 120.494 12.5273 120.143 12.293C119.798 12.0586 119.553 11.7852 119.41 11.4727C119.267 11.1536 119.195 10.7695 119.195 10.3203C119.195 9.83854 119.316 9.4056 119.557 9.02148C119.804 8.63737 120.146 8.33789 120.582 8.12305C121.025 7.9082 121.523 7.80078 122.076 7.80078C122.46 7.80078 122.828 7.83659 123.18 7.9082C123.538 7.97982 123.824 8.07422 124.039 8.19141C124.26 8.30208 124.371 8.41927 124.371 8.54297C124.371 8.63411 124.339 8.75781 124.273 8.91406C124.215 9.0638 124.14 9.19727 124.049 9.31445C123.958 9.42513 123.876 9.48047 123.805 9.48047C123.792 9.48047 123.71 9.44141 123.561 9.36328C123.411 9.27865 123.219 9.20378 122.984 9.13867C122.757 9.06706 122.503 9.03125 122.223 9.03125C121.78 9.03125 121.412 9.13216 121.119 9.33398C120.833 9.5293 120.689 9.79297 120.689 10.125C120.689 10.5156 120.794 10.8281 121.002 11.0625C121.21 11.2969 121.555 11.4889 122.037 11.6387C122.779 11.8665 123.346 12.0944 123.736 12.3223C124.127 12.5501 124.404 12.8301 124.566 13.1621C124.736 13.4876 124.82 13.9173 124.82 14.4512C124.82 14.959 124.684 15.4212 124.41 15.8379C124.137 16.248 123.766 16.5736 123.297 16.8145C122.828 17.0488 122.311 17.166 121.744 17.166Z" fill="#3C3C3C" fill-opacity="0.45"/>
<path d="M128.912 17.166C128.424 17.166 127.968 17.1042 127.545 16.9805C127.122 16.8568 126.783 16.707 126.529 16.5312C126.282 16.349 126.158 16.1895 126.158 16.0527C126.158 15.9876 126.191 15.8835 126.256 15.7402C126.327 15.597 126.409 15.4701 126.5 15.3594C126.598 15.2422 126.686 15.1836 126.764 15.1836C126.783 15.1836 126.842 15.2161 126.939 15.2812C127.2 15.4505 127.473 15.5938 127.76 15.7109C128.053 15.8281 128.401 15.8867 128.805 15.8867C129.938 15.8867 130.504 15.418 130.504 14.4805C130.504 14.2135 130.449 13.9889 130.338 13.8066C130.234 13.6243 130.055 13.4648 129.801 13.3281C129.553 13.1849 129.212 13.0482 128.775 12.918C128.15 12.7357 127.662 12.5273 127.311 12.293C126.965 12.0586 126.721 11.7852 126.578 11.4727C126.435 11.1536 126.363 10.7695 126.363 10.3203C126.363 9.83854 126.484 9.4056 126.725 9.02148C126.972 8.63737 127.314 8.33789 127.75 8.12305C128.193 7.9082 128.691 7.80078 129.244 7.80078C129.628 7.80078 129.996 7.83659 130.348 7.9082C130.706 7.97982 130.992 8.07422 131.207 8.19141C131.428 8.30208 131.539 8.41927 131.539 8.54297C131.539 8.63411 131.507 8.75781 131.441 8.91406C131.383 9.0638 131.308 9.19727 131.217 9.31445C131.126 9.42513 131.044 9.48047 130.973 9.48047C130.96 9.48047 130.878 9.44141 130.729 9.36328C130.579 9.27865 130.387 9.20378 130.152 9.13867C129.924 9.06706 129.671 9.03125 129.391 9.03125C128.948 9.03125 128.58 9.13216 128.287 9.33398C128.001 9.5293 127.857 9.79297 127.857 10.125C127.857 10.5156 127.962 10.8281 128.17 11.0625C128.378 11.2969 128.723 11.4889 129.205 11.6387C129.947 11.8665 130.514 12.0944 130.904 12.3223C131.295 12.5501 131.572 12.8301 131.734 13.1621C131.904 13.4876 131.988 13.9173 131.988 14.4512C131.988 14.959 131.852 15.4212 131.578 15.8379C131.305 16.248 130.934 16.5736 130.465 16.8145C129.996 17.0488 129.479 17.166 128.912 17.166Z" fill="#3C3C3C" fill-opacity="0.45"/>
<path d="M136.305 17.0293C135.882 17.0293 135.65 16.9382 135.611 16.7559L133.326 8.52344C133.261 8.34115 133.229 8.22721 133.229 8.18164C133.229 7.98633 133.495 7.88867 134.029 7.88867C134.446 7.88867 134.677 7.97982 134.723 8.16211L136.188 13.7188C136.214 13.8099 136.298 14.181 136.441 14.832C136.474 15.0078 136.536 15.2975 136.627 15.7012C136.757 14.9004 136.9 14.2331 137.057 13.6992L138.492 8.18164C138.538 7.98633 138.766 7.88867 139.176 7.88867H139.293C139.69 7.88867 139.918 7.98633 139.977 8.18164L141.422 13.6992C141.578 14.2721 141.708 14.8353 141.812 15.3887C141.819 15.4277 141.835 15.5254 141.861 15.6816C142.044 14.7181 142.177 14.0703 142.262 13.7383L143.727 8.16211C143.772 7.97982 144.007 7.88867 144.43 7.88867C144.892 7.88867 145.123 7.98633 145.123 8.18164C145.123 8.25326 145.107 8.33138 145.074 8.41602L142.74 16.7559C142.701 16.9382 142.473 17.0293 142.057 17.0293H141.529C141.119 17.0293 140.895 16.9382 140.855 16.7559L139.459 11.248C139.374 10.89 139.29 10.4408 139.205 9.90039C139.12 10.4668 139.033 10.9128 138.941 11.2383L137.525 16.7559C137.486 16.9382 137.252 17.0293 136.822 17.0293H136.305Z" fill="#3C3C3C" fill-opacity="0.45"/>
<path d="M150.66 17.0977C149.352 17.0977 148.352 16.707 147.662 15.9258C146.979 15.138 146.637 13.9954 146.637 12.498C146.637 11.0007 146.985 9.84831 147.682 9.04102C148.378 8.22721 149.371 7.82031 150.66 7.82031C151.936 7.82031 152.913 8.22396 153.59 9.03125C154.267 9.83203 154.605 10.9876 154.605 12.498C154.605 14.002 154.27 15.1445 153.6 15.9258C152.936 16.707 151.956 17.0977 150.66 17.0977ZM150.611 15.8477C151.458 15.8477 152.083 15.5742 152.486 15.0273C152.89 14.474 153.092 13.6211 153.092 12.4688C153.092 11.3099 152.89 10.4538 152.486 9.90039C152.083 9.34701 151.458 9.07031 150.611 9.07031C149.771 9.07031 149.153 9.34701 148.756 9.90039C148.359 10.4473 148.16 11.3034 148.16 12.4688C148.16 13.6276 148.355 14.4805 148.746 15.0273C149.143 15.5742 149.765 15.8477 150.611 15.8477Z" fill="#3C3C3C" fill-opacity="0.45"/>
<path d="M157.828 17.0293C157.581 17.0293 157.402 17 157.291 16.9414C157.18 16.8763 157.125 16.7786 157.125 16.6484V10.5547C157.125 9.79948 157.089 9.25586 157.018 8.92383C156.946 8.58529 156.91 8.39974 156.91 8.36719C156.91 8.22396 157.018 8.12305 157.232 8.06445C157.454 7.99935 157.662 7.9668 157.857 7.9668C158.014 7.9668 158.131 8.05143 158.209 8.2207C158.287 8.38346 158.355 8.61458 158.414 8.91406L158.463 9.11914C159.081 8.25326 159.752 7.82031 160.475 7.82031C160.807 7.82031 161.057 7.88216 161.227 8.00586C161.396 8.12305 161.48 8.28255 161.48 8.48438C161.48 8.67969 161.445 8.88802 161.373 9.10938C161.308 9.32422 161.23 9.43164 161.139 9.43164C161.093 9.43164 161.012 9.41211 160.895 9.37305C160.79 9.32747 160.686 9.29492 160.582 9.27539C160.478 9.24935 160.344 9.23633 160.182 9.23633C159.915 9.23633 159.661 9.31445 159.42 9.4707C159.186 9.62695 158.987 9.79948 158.824 9.98828C158.661 10.1771 158.58 10.2812 158.58 10.3008V16.6484C158.58 16.7786 158.525 16.8763 158.414 16.9414C158.303 17 158.131 17.0293 157.896 17.0293H157.828Z" fill="#3C3C3C" fill-opacity="0.45"/>
<path d="M166.178 17.0977C165.501 17.0977 164.908 16.9023 164.4 16.5117C163.893 16.1146 163.499 15.5645 163.219 14.8613C162.945 14.1582 162.809 13.3607 162.809 12.4688C162.809 11.4857 162.955 10.6458 163.248 9.94922C163.548 9.24609 163.964 8.71549 164.498 8.35742C165.032 7.99935 165.647 7.82031 166.344 7.82031C166.845 7.82031 167.288 7.89518 167.672 8.04492C168.062 8.19466 168.447 8.41276 168.824 8.69922V4.32422C168.824 4.07031 169.052 3.94336 169.508 3.94336H169.586C170.048 3.94336 170.279 4.07031 170.279 4.32422V14.4316C170.279 15.1868 170.315 15.7337 170.387 16.0723C170.458 16.4043 170.494 16.5866 170.494 16.6191C170.494 16.7624 170.383 16.8665 170.162 16.9316C169.947 16.9902 169.745 17.0195 169.557 17.0195C169.426 17.0195 169.322 16.9577 169.244 16.834C169.166 16.7103 169.111 16.5866 169.078 16.4629C169.052 16.3327 169.007 16.1113 168.941 15.7988C168.115 16.6647 167.193 17.0977 166.178 17.0977ZM166.48 15.8379C166.865 15.8379 167.262 15.7337 167.672 15.5254C168.089 15.3171 168.473 15.0208 168.824 14.6367V9.88086C168.199 9.36003 167.486 9.09961 166.686 9.09961C165.911 9.11914 165.325 9.40234 164.928 9.94922C164.537 10.4961 164.342 11.2904 164.342 12.332C164.342 13.4518 164.524 14.3177 164.889 14.9297C165.26 15.5352 165.79 15.8379 166.48 15.8379Z" fill="#3C3C3C" fill-opacity="0.45"/>
<path d="M76 7H75V5C75 2.24 72.76 0 70 0C67.24 0 65 2.24 65 5V7H64C62.9 7 62 7.9 62 9V19C62 20.1 62.9 21 64 21H76C77.1 21 78 20.1 78 19V9C78 7.9 77.1 7 76 7ZM70 16C68.9 16 68 15.1 68 14C68 12.9 68.9 12 70 12C71.1 12 72 12.9 72 14C72 15.1 71.1 16 70 16ZM73.1 7H66.9V5C66.9 3.29 68.29 1.9 70 1.9C71.71 1.9 73.1 3.29 73.1 5V7Z" fill="#3C3C3C" fill-opacity="0.45"/>
</svg>
