<svg width="133" height="26" viewBox="0 0 133 26" fill="none" xmlns="http://www.w3.org/2000/svg">
<path d="M63.168 17.0293C62.9271 17.0293 62.7513 17 62.6406 16.9414C62.5365 16.8763 62.4844 16.7786 62.4844 16.6484V5.36914C62.4844 5.18034 62.5234 5.04688 62.6016 4.96875C62.6862 4.89062 62.8197 4.85156 63.002 4.85156H66.5176C67.5332 4.85156 68.4316 5.0957 69.2129 5.58398C70.0007 6.06576 70.3945 6.95443 70.3945 8.25C70.3945 9.21354 70.1699 9.96224 69.7207 10.4961C69.2715 11.0234 68.7669 11.3783 68.207 11.5605C67.6471 11.7363 67.1426 11.8242 66.6934 11.8242H63.998V16.6484C63.998 16.7786 63.9427 16.8763 63.832 16.9414C63.7214 17 63.5488 17.0293 63.3145 17.0293H63.168ZM66.7129 10.5059C67.0059 10.5059 67.3118 10.444 67.6309 10.3203C67.9499 10.1901 68.2266 9.95898 68.4609 9.62695C68.6953 9.28841 68.8125 8.82943 68.8125 8.25C68.8125 7.47526 68.5814 6.9349 68.1191 6.62891C67.6634 6.32292 67.1133 6.16992 66.4688 6.16992H63.998V10.5059H66.7129Z" fill="black"/>
<path d="M74.7207 17.0977C73.8353 17.0977 73.1191 16.8796 72.5723 16.4434C72.0254 16.0072 71.752 15.3594 71.752 14.5C71.752 13.5951 72.0286 12.9147 72.582 12.459C73.1354 11.9967 73.8092 11.7005 74.6035 11.5703C75.4043 11.4336 76.3743 11.3555 77.5137 11.3359V10.5156C77.5137 10.0794 77.3639 9.73112 77.0645 9.4707C76.7715 9.20378 76.2865 9.07031 75.6094 9.07031C75.0951 9.07031 74.6426 9.13216 74.252 9.25586C73.8678 9.37305 73.5065 9.51628 73.168 9.68555C73.0247 9.75716 72.9368 9.79297 72.9043 9.79297C72.8262 9.79297 72.7383 9.73763 72.6406 9.62695C72.5495 9.50977 72.4681 9.37956 72.3965 9.23633C72.3314 9.0931 72.2988 8.98893 72.2988 8.92383C72.2988 8.77409 72.4518 8.61133 72.7578 8.43555C73.0703 8.25977 73.4772 8.11328 73.9785 7.99609C74.4798 7.87891 75.0039 7.82031 75.5508 7.82031C76.638 7.82031 77.4811 8.05794 78.0801 8.5332C78.679 9.00846 78.9785 9.67578 78.9785 10.5352V14.4316C78.9785 15.1868 79.0111 15.7337 79.0762 16.0723C79.1478 16.4043 79.1836 16.5866 79.1836 16.6191C79.1836 16.7624 79.0729 16.8665 78.8516 16.9316C78.6367 16.9902 78.4349 17.0195 78.2461 17.0195C78.0898 17.0195 77.9727 16.9316 77.8945 16.7559C77.8229 16.5801 77.7513 16.3262 77.6797 15.9941L77.6406 15.7988C77.2826 16.196 76.8594 16.5117 76.3711 16.7461C75.8893 16.9805 75.3392 17.0977 74.7207 17.0977ZM74.7988 15.8379C75.3717 15.8379 75.86 15.7337 76.2637 15.5254C76.6673 15.3171 77.084 15.0208 77.5137 14.6367V12.5859C76.6543 12.5924 75.9479 12.6283 75.3945 12.6934C74.8411 12.7585 74.3561 12.9245 73.9395 13.1914C73.5228 13.4518 73.3145 13.8587 73.3145 14.4121C73.3145 14.8743 73.4382 15.2292 73.6855 15.4766C73.9395 15.7174 74.3105 15.8379 74.7988 15.8379Z" fill="black"/>
<path d="M83.7441 17.166C83.2559 17.166 82.8001 17.1042 82.377 16.9805C81.9538 16.8568 81.6152 16.707 81.3613 16.5312C81.1139 16.349 80.9902 16.1895 80.9902 16.0527C80.9902 15.9876 81.0228 15.8835 81.0879 15.7402C81.1595 15.597 81.2409 15.4701 81.332 15.3594C81.4297 15.2422 81.5176 15.1836 81.5957 15.1836C81.6152 15.1836 81.6738 15.2161 81.7715 15.2812C82.0319 15.4505 82.3053 15.5938 82.5918 15.7109C82.8848 15.8281 83.2331 15.8867 83.6367 15.8867C84.7695 15.8867 85.3359 15.418 85.3359 14.4805C85.3359 14.2135 85.2806 13.9889 85.1699 13.8066C85.0658 13.6243 84.8867 13.4648 84.6328 13.3281C84.3854 13.1849 84.0436 13.0482 83.6074 12.918C82.9824 12.7357 82.4941 12.5273 82.1426 12.293C81.7975 12.0586 81.5534 11.7852 81.4102 11.4727C81.2669 11.1536 81.1953 10.7695 81.1953 10.3203C81.1953 9.83854 81.3158 9.4056 81.5566 9.02148C81.804 8.63737 82.1458 8.33789 82.582 8.12305C83.0247 7.9082 83.5228 7.80078 84.0762 7.80078C84.4603 7.80078 84.8281 7.83659 85.1797 7.9082C85.5378 7.97982 85.8242 8.07422 86.0391 8.19141C86.2604 8.30208 86.3711 8.41927 86.3711 8.54297C86.3711 8.63411 86.3385 8.75781 86.2734 8.91406C86.2148 9.0638 86.14 9.19727 86.0488 9.31445C85.9577 9.42513 85.8763 9.48047 85.8047 9.48047C85.7917 9.48047 85.7103 9.44141 85.5605 9.36328C85.4108 9.27865 85.2188 9.20378 84.9844 9.13867C84.7565 9.06706 84.5026 9.03125 84.2227 9.03125C83.7799 9.03125 83.4121 9.13216 83.1191 9.33398C82.8327 9.5293 82.6895 9.79297 82.6895 10.125C82.6895 10.5156 82.7936 10.8281 83.002 11.0625C83.2103 11.2969 83.5553 11.4889 84.0371 11.6387C84.7793 11.8665 85.3457 12.0944 85.7363 12.3223C86.127 12.5501 86.4036 12.8301 86.5664 13.1621C86.7357 13.4876 86.8203 13.9173 86.8203 14.4512C86.8203 14.959 86.6836 15.4212 86.4102 15.8379C86.1367 16.248 85.7656 16.5736 85.2969 16.8145C84.8281 17.0488 84.3105 17.166 83.7441 17.166Z" fill="black"/>
<path d="M90.9121 17.166C90.4238 17.166 89.9681 17.1042 89.5449 16.9805C89.1217 16.8568 88.7832 16.707 88.5293 16.5312C88.2819 16.349 88.1582 16.1895 88.1582 16.0527C88.1582 15.9876 88.1908 15.8835 88.2559 15.7402C88.3275 15.597 88.4089 15.4701 88.5 15.3594C88.5977 15.2422 88.6855 15.1836 88.7637 15.1836C88.7832 15.1836 88.8418 15.2161 88.9395 15.2812C89.1999 15.4505 89.4733 15.5938 89.7598 15.7109C90.0527 15.8281 90.401 15.8867 90.8047 15.8867C91.9375 15.8867 92.5039 15.418 92.5039 14.4805C92.5039 14.2135 92.4486 13.9889 92.3379 13.8066C92.2337 13.6243 92.0547 13.4648 91.8008 13.3281C91.5534 13.1849 91.2116 13.0482 90.7754 12.918C90.1504 12.7357 89.6621 12.5273 89.3105 12.293C88.9655 12.0586 88.7214 11.7852 88.5781 11.4727C88.4349 11.1536 88.3633 10.7695 88.3633 10.3203C88.3633 9.83854 88.4837 9.4056 88.7246 9.02148C88.972 8.63737 89.3138 8.33789 89.75 8.12305C90.1927 7.9082 90.6908 7.80078 91.2441 7.80078C91.6283 7.80078 91.9961 7.83659 92.3477 7.9082C92.7057 7.97982 92.9922 8.07422 93.207 8.19141C93.4284 8.30208 93.5391 8.41927 93.5391 8.54297C93.5391 8.63411 93.5065 8.75781 93.4414 8.91406C93.3828 9.0638 93.3079 9.19727 93.2168 9.31445C93.1257 9.42513 93.0443 9.48047 92.9727 9.48047C92.9596 9.48047 92.8783 9.44141 92.7285 9.36328C92.5788 9.27865 92.3867 9.20378 92.1523 9.13867C91.9245 9.06706 91.6706 9.03125 91.3906 9.03125C90.9479 9.03125 90.5801 9.13216 90.2871 9.33398C90.0007 9.5293 89.8574 9.79297 89.8574 10.125C89.8574 10.5156 89.9616 10.8281 90.1699 11.0625C90.3783 11.2969 90.7233 11.4889 91.2051 11.6387C91.9473 11.8665 92.5137 12.0944 92.9043 12.3223C93.2949 12.5501 93.5716 12.8301 93.7344 13.1621C93.9036 13.4876 93.9883 13.9173 93.9883 14.4512C93.9883 14.959 93.8516 15.4212 93.5781 15.8379C93.3047 16.248 92.9336 16.5736 92.4648 16.8145C91.9961 17.0488 91.4785 17.166 90.9121 17.166Z" fill="black"/>
<path d="M98.3047 17.0293C97.8815 17.0293 97.6504 16.9382 97.6113 16.7559L95.3262 8.52344C95.2611 8.34115 95.2285 8.22721 95.2285 8.18164C95.2285 7.98633 95.4954 7.88867 96.0293 7.88867C96.446 7.88867 96.6771 7.97982 96.7227 8.16211L98.1875 13.7188C98.2135 13.8099 98.2982 14.181 98.4414 14.832C98.474 15.0078 98.5358 15.2975 98.627 15.7012C98.7572 14.9004 98.9004 14.2331 99.0566 13.6992L100.492 8.18164C100.538 7.98633 100.766 7.88867 101.176 7.88867H101.293C101.69 7.88867 101.918 7.98633 101.977 8.18164L103.422 13.6992C103.578 14.2721 103.708 14.8353 103.812 15.3887C103.819 15.4277 103.835 15.5254 103.861 15.6816C104.044 14.7181 104.177 14.0703 104.262 13.7383L105.727 8.16211C105.772 7.97982 106.007 7.88867 106.43 7.88867C106.892 7.88867 107.123 7.98633 107.123 8.18164C107.123 8.25326 107.107 8.33138 107.074 8.41602L104.74 16.7559C104.701 16.9382 104.473 17.0293 104.057 17.0293H103.529C103.119 17.0293 102.895 16.9382 102.855 16.7559L101.459 11.248C101.374 10.89 101.29 10.4408 101.205 9.90039C101.12 10.4668 101.033 10.9128 100.941 11.2383L99.5254 16.7559C99.4863 16.9382 99.252 17.0293 98.8223 17.0293H98.3047Z" fill="black"/>
<path d="M112.66 17.0977C111.352 17.0977 110.352 16.707 109.662 15.9258C108.979 15.138 108.637 13.9954 108.637 12.498C108.637 11.0007 108.985 9.84831 109.682 9.04102C110.378 8.22721 111.371 7.82031 112.66 7.82031C113.936 7.82031 114.913 8.22396 115.59 9.03125C116.267 9.83203 116.605 10.9876 116.605 12.498C116.605 14.002 116.27 15.1445 115.6 15.9258C114.936 16.707 113.956 17.0977 112.66 17.0977ZM112.611 15.8477C113.458 15.8477 114.083 15.5742 114.486 15.0273C114.89 14.474 115.092 13.6211 115.092 12.4688C115.092 11.3099 114.89 10.4538 114.486 9.90039C114.083 9.34701 113.458 9.07031 112.611 9.07031C111.771 9.07031 111.153 9.34701 110.756 9.90039C110.359 10.4473 110.16 11.3034 110.16 12.4688C110.16 13.6276 110.355 14.4805 110.746 15.0273C111.143 15.5742 111.765 15.8477 112.611 15.8477Z" fill="black"/>
<path d="M119.828 17.0293C119.581 17.0293 119.402 17 119.291 16.9414C119.18 16.8763 119.125 16.7786 119.125 16.6484V10.5547C119.125 9.79948 119.089 9.25586 119.018 8.92383C118.946 8.58529 118.91 8.39974 118.91 8.36719C118.91 8.22396 119.018 8.12305 119.232 8.06445C119.454 7.99935 119.662 7.9668 119.857 7.9668C120.014 7.9668 120.131 8.05143 120.209 8.2207C120.287 8.38346 120.355 8.61458 120.414 8.91406L120.463 9.11914C121.081 8.25326 121.752 7.82031 122.475 7.82031C122.807 7.82031 123.057 7.88216 123.227 8.00586C123.396 8.12305 123.48 8.28255 123.48 8.48438C123.48 8.67969 123.445 8.88802 123.373 9.10938C123.308 9.32422 123.23 9.43164 123.139 9.43164C123.093 9.43164 123.012 9.41211 122.895 9.37305C122.79 9.32747 122.686 9.29492 122.582 9.27539C122.478 9.24935 122.344 9.23633 122.182 9.23633C121.915 9.23633 121.661 9.31445 121.42 9.4707C121.186 9.62695 120.987 9.79948 120.824 9.98828C120.661 10.1771 120.58 10.2812 120.58 10.3008V16.6484C120.58 16.7786 120.525 16.8763 120.414 16.9414C120.303 17 120.131 17.0293 119.896 17.0293H119.828Z" fill="black"/>
<path d="M128.178 17.0977C127.501 17.0977 126.908 16.9023 126.4 16.5117C125.893 16.1146 125.499 15.5645 125.219 14.8613C124.945 14.1582 124.809 13.3607 124.809 12.4688C124.809 11.4857 124.955 10.6458 125.248 9.94922C125.548 9.24609 125.964 8.71549 126.498 8.35742C127.032 7.99935 127.647 7.82031 128.344 7.82031C128.845 7.82031 129.288 7.89518 129.672 8.04492C130.062 8.19466 130.447 8.41276 130.824 8.69922V4.32422C130.824 4.07031 131.052 3.94336 131.508 3.94336H131.586C132.048 3.94336 132.279 4.07031 132.279 4.32422V14.4316C132.279 15.1868 132.315 15.7337 132.387 16.0723C132.458 16.4043 132.494 16.5866 132.494 16.6191C132.494 16.7624 132.383 16.8665 132.162 16.9316C131.947 16.9902 131.745 17.0195 131.557 17.0195C131.426 17.0195 131.322 16.9577 131.244 16.834C131.166 16.7103 131.111 16.5866 131.078 16.4629C131.052 16.3327 131.007 16.1113 130.941 15.7988C130.115 16.6647 129.193 17.0977 128.178 17.0977ZM128.48 15.8379C128.865 15.8379 129.262 15.7337 129.672 15.5254C130.089 15.3171 130.473 15.0208 130.824 14.6367V9.88086C130.199 9.36003 129.486 9.09961 128.686 9.09961C127.911 9.11914 127.325 9.40234 126.928 9.94922C126.537 10.4961 126.342 11.2904 126.342 12.332C126.342 13.4518 126.524 14.3177 126.889 14.9297C127.26 15.5352 127.79 15.8379 128.48 15.8379Z" fill="black"/>
<path d="M38 7H37V5C37 2.24 34.76 0 32 0C29.24 0 27 2.24 27 5V7H26C24.9 7 24 7.9 24 9V19C24 20.1 24.9 21 26 21H38C39.1 21 40 20.1 40 19V9C40 7.9 39.1 7 38 7ZM32 16C30.9 16 30 15.1 30 14C30 12.9 30.9 12 32 12C33.1 12 34 12.9 34 14C34 15.1 33.1 16 32 16ZM35.1 7H28.9V5C28.9 3.29 30.29 1.9 32 1.9C33.71 1.9 35.1 3.29 35.1 5V7Z" fill="black"/>
</svg>
