<svg width="60" height="60" viewBox="0 0 60 60" fill="none" xmlns="http://www.w3.org/2000/svg">
<rect width="60" height="60" fill="#3C3C3C"/>
<g clip-path="url(#clip0_77_1938)">
<path d="M30.0001 57.7067C30.84 57.6874 31.646 57.3716 32.2756 56.8153C32.9051 56.259 33.3176 55.4979 33.4401 54.6667H26.4268C26.5527 55.5205 26.9845 56.2994 27.6418 56.8586C28.2991 57.4178 29.1372 57.7192 30.0001 57.7067V57.7067Z" fill="white"/>
<path d="M49.8002 49.5067L49.3469 49.1067C48.0608 47.9608 46.9351 46.6468 46.0002 45.2C44.9792 43.2034 44.3672 41.023 44.2002 38.7867V32.2C44.1948 31.4 44.1235 30.6017 43.9869 29.8134C41.7284 29.3492 39.6997 28.1187 38.2442 26.3304C36.7888 24.5421 35.9961 22.3058 36.0002 20V19.16C34.6081 18.475 33.1125 18.0244 31.5736 17.8267V16.1467C31.5736 15.6746 31.386 15.2219 31.0522 14.888C30.7184 14.5542 30.2656 14.3667 29.7936 14.3667C29.3215 14.3667 28.8687 14.5542 28.5349 14.888C28.2011 15.2219 28.0136 15.6746 28.0136 16.1467V17.8934C24.5679 18.3794 21.4143 20.0957 19.1352 22.7253C16.8561 25.3549 15.6052 28.7202 15.6136 32.2V38.7867C15.4466 41.023 14.8346 43.2034 13.8136 45.2C12.8947 46.6432 11.7872 47.957 10.5202 49.1067L10.0669 49.5067V53.2667H49.8002V49.5067Z" fill="white"/>
<path d="M46.0002 26.6666C49.6821 26.6666 52.6668 23.6818 52.6668 19.9999C52.6668 16.318 49.6821 13.3333 46.0002 13.3333C42.3183 13.3333 39.3335 16.318 39.3335 19.9999C39.3335 23.6818 42.3183 26.6666 46.0002 26.6666Z" fill="white"/>
</g>
<defs>
<clipPath id="clip0_77_1938">
<rect width="48" height="48" fill="white" transform="translate(6 12)"/>
</clipPath>
</defs>
</svg>
