<svg width="60" height="60" viewBox="0 0 60 60" fill="none" xmlns="http://www.w3.org/2000/svg">
<rect width="60" height="60" fill="#3C3C3C"/>
<path d="M26.375 6.33238C27.3894 5.47744 28.6734 5.00854 30 5.00854C31.3266 5.00854 32.6106 5.47744 33.625 6.33238L50.5 20.5699C51.77 21.6374 52.5 23.2099 52.5 24.8699V49.3749C52.5 50.5352 52.0391 51.648 51.2186 52.4685C50.3981 53.2889 49.2853 53.7499 48.125 53.7499H40.625C39.4647 53.7499 38.3519 53.2889 37.5314 52.4685C36.7109 51.648 36.25 50.5352 36.25 49.3749V36.8749C36.25 36.3776 36.0525 35.9007 35.7008 35.5491C35.3492 35.1974 34.8723 34.9999 34.375 34.9999H25.625C25.1277 34.9999 24.6508 35.1974 24.2992 35.5491C23.9475 35.9007 23.75 36.3776 23.75 36.8749V49.3749C23.75 50.5352 23.2891 51.648 22.4686 52.4685C21.6481 53.2889 20.5353 53.7499 19.375 53.7499H11.875C11.3005 53.7499 10.7316 53.6367 10.2008 53.4169C9.66996 53.197 9.18766 52.8747 8.78141 52.4685C8.37515 52.0622 8.05289 51.5799 7.83303 51.0491C7.61316 50.5183 7.5 49.9494 7.5 49.3749V24.8674C7.5 23.2099 8.23 21.6374 9.5 20.5674L26.375 6.33238V6.33238Z" fill="white"/>
</svg>
