<svg width="45" height="45" viewBox="0 0 45 45" fill="none" xmlns="http://www.w3.org/2000/svg">
<g clip-path="url(#clip0_92_3393)">
<path d="M22.5 0C10.0716 0 0 10.0716 0 22.5C0 34.9284 10.0716 45 22.5 45C34.9284 45 45 34.9284 45 22.5C45 10.0716 34.9284 0 22.5 0ZM16.875 33.75C10.6538 33.75 5.625 28.7241 5.625 22.5C5.625 16.2759 10.6538 11.25 16.875 11.25C19.9153 11.25 22.455 12.3581 24.4153 14.1947L21.3553 17.1309C20.52 16.3322 19.0603 15.3984 16.8722 15.3984C13.0303 15.3984 9.89437 18.5794 9.89437 22.5C9.89437 26.4206 13.0331 29.6016 16.8722 29.6016C21.3272 29.6016 22.9978 26.4038 23.2537 24.75H16.8722V20.8912H27.4978C27.5934 21.4537 27.675 22.0162 27.675 22.7559C27.675 29.1881 23.3719 33.75 16.875 33.75ZM36.5625 22.5V25.3125H33.75V22.5H30.9375V19.6875H33.75V16.875H36.5625V19.6875H39.375V22.5H36.5625Z" fill="#3C3C3C"/>
</g>
<defs>
<clipPath id="clip0_92_3393">
<rect width="45" height="45" fill="white"/>
</clipPath>
</defs>
</svg>
