<svg width="24" height="25" viewBox="0 0 24 25" fill="none" xmlns="http://www.w3.org/2000/svg">
<path d="M18.5043 21.6586H5.97593C5.44347 21.6586 5.01221 21.2274 5.01221 20.6949V14.9126H19.468V20.6949C19.468 21.2274 19.0367 21.6586 18.5043 21.6586Z" fill="url(#paint0_linear_11_3671)"/>
<path d="M18.5043 20.2131H5.97593C5.44347 20.2131 5.01221 19.7819 5.01221 19.2494V13.949H19.468V19.2494C19.468 19.7819 19.0367 20.2131 18.5043 20.2131Z" fill="url(#paint1_linear_11_3671)"/>
<path d="M18.5043 18.7675H5.97593C5.44347 18.7675 5.01221 18.3362 5.01221 17.8038V4.79355C5.01221 4.2611 5.44347 3.82983 5.97593 3.82983H18.5043C19.0367 3.82983 19.468 4.2611 19.468 4.79355V17.8038C19.468 18.3362 19.0367 18.7675 18.5043 18.7675Z" fill="url(#paint2_linear_11_3671)"/>
<path d="M17.2994 10.094H7.18038C7.04739 10.094 6.93945 9.98608 6.93945 9.85309V8.88937C6.93945 8.75637 7.04739 8.64844 7.18038 8.64844H17.2994C17.4324 8.64844 17.5404 8.75637 17.5404 8.88937V9.85309C17.5404 9.98608 17.4324 10.094 17.2994 10.094Z" fill="#057093"/>
<path d="M17.2994 12.9852H7.18038C7.04739 12.9852 6.93945 12.8773 6.93945 12.7443V11.7806C6.93945 11.6476 7.04739 11.5397 7.18038 11.5397H17.2994C17.4324 11.5397 17.5404 11.6476 17.5404 11.7806V12.7443C17.5404 12.8773 17.4324 12.9852 17.2994 12.9852Z" fill="#057093"/>
<path d="M17.2994 15.8764H7.18038C7.04739 15.8764 6.93945 15.7684 6.93945 15.6354V14.6717C6.93945 14.5387 7.04739 14.4308 7.18038 14.4308H17.2994C17.4324 14.4308 17.5404 14.5387 17.5404 14.6717V15.6354C17.5404 15.7684 17.4324 15.8764 17.2994 15.8764Z" fill="#057093"/>
<path d="M17.2994 5.27551C16.9005 5.27551 16.5767 4.9517 16.5767 4.55272V3.589C16.5767 3.19002 16.9005 2.86621 17.2994 2.86621C17.6984 2.86621 18.0222 3.19002 18.0222 3.589V4.55272C18.0222 4.9517 17.6984 5.27551 17.2994 5.27551Z" fill="#057093"/>
<path d="M13.9264 5.27551C13.5274 5.27551 13.2036 4.9517 13.2036 4.55272V3.589C13.2036 3.19002 13.5274 2.86621 13.9264 2.86621C14.3254 2.86621 14.6492 3.19002 14.6492 3.589V4.55272C14.6492 4.9517 14.3254 5.27551 13.9264 5.27551Z" fill="#057093"/>
<path d="M10.5534 5.27551C10.1544 5.27551 9.83057 4.9517 9.83057 4.55272V3.589C9.83057 3.19002 10.1544 2.86621 10.5534 2.86621C10.9523 2.86621 11.2761 3.19002 11.2761 3.589V4.55272C11.2761 4.9517 10.9523 5.27551 10.5534 5.27551Z" fill="#057093"/>
<path d="M7.18031 5.27551C6.78133 5.27551 6.45752 4.9517 6.45752 4.55272V3.589C6.45752 3.19002 6.78133 2.86621 7.18031 2.86621C7.57929 2.86621 7.9031 3.19002 7.9031 3.589V4.55272C7.9031 4.9517 7.57929 5.27551 7.18031 5.27551Z" fill="#057093"/>
<defs>
<linearGradient id="paint0_linear_11_3671" x1="12.2401" y1="18.2538" x2="12.2401" y2="20.9031" gradientUnits="userSpaceOnUse">
<stop offset="0.435" stop-color="#382010"/>
<stop offset="1" stop-color="#B0622B"/>
</linearGradient>
<linearGradient id="paint1_linear_11_3671" x1="12.2401" y1="17.0594" x2="12.2401" y2="19.5197" gradientUnits="userSpaceOnUse">
<stop offset="0.441" stop-color="#999998"/>
<stop offset="0.653" stop-color="#C1C1C0"/>
<stop offset="0.88" stop-color="#E5E5E5"/>
<stop offset="1" stop-color="#F3F3F3"/>
</linearGradient>
<linearGradient id="paint2_linear_11_3671" x1="5.25265" y1="3.88669" x2="18.8584" y2="18.3198" gradientUnits="userSpaceOnUse">
<stop stop-color="#7DD8F3"/>
<stop offset="1" stop-color="#45B0D0"/>
</linearGradient>
</defs>
</svg>
