<svg width="48" height="48" viewBox="0 0 48 48" fill="none" xmlns="http://www.w3.org/2000/svg">
<path d="M14 30C15.6667 30 17.0833 29.4167 18.25 28.25C19.4167 27.0833 20 25.6667 20 24C20 22.3333 19.4167 20.9167 18.25 19.75C17.0833 18.5833 15.6667 18 14 18C12.3333 18 10.9167 18.5833 9.75 19.75C8.58333 20.9167 8 22.3333 8 24C8 25.6667 8.58333 27.0833 9.75 28.25C10.9167 29.4167 12.3333 30 14 30ZM14 36C10.6667 36 7.83333 34.8333 5.5 32.5C3.16667 30.1667 2 27.3333 2 24C2 20.6667 3.16667 17.8333 5.5 15.5C7.83333 13.1667 10.6667 12 14 12C16.7 12 19.0587 12.7667 21.076 14.3C23.092 15.8333 24.5 17.7333 25.3 20H41.2C41.4667 20 41.7253 20.05 41.976 20.15C42.2253 20.25 42.4333 20.3833 42.6 20.55L44.55 22.5C44.75 22.7 44.9 22.9247 45 23.174C45.1 23.4247 45.15 23.6833 45.15 23.95C45.15 24.2167 45.1087 24.4667 45.026 24.7C44.942 24.9333 44.8 25.15 44.6 25.35L39.4 30.55C39.2 30.75 38.9833 30.9 38.75 31C38.5167 31.1 38.2667 31.15 38 31.15C37.7333 31.15 37.4833 31.108 37.25 31.024C37.0167 30.9413 36.8 30.8 36.6 30.6L34 28L31.4 30.6C31.2 30.8 30.9833 30.9413 30.75 31.024C30.5167 31.108 30.2667 31.15 30 31.15C29.7333 31.15 29.4833 31.108 29.25 31.024C29.0167 30.9413 28.8 30.8 28.6 30.6L26 28H25.3C24.4667 30.4 23.0167 32.3333 20.95 33.8C18.8833 35.2667 16.5667 36 14 36Z" fill="black"/>
</svg>
