<svg width="62" height="62" viewBox="0 0 62 62" fill="none" xmlns="http://www.w3.org/2000/svg">
<path d="M31 7.75C18.1815 7.75 7.75 18.1815 7.75 31C7.75 43.8185 18.1815 54.25 31 54.25C43.8185 54.25 54.25 43.8185 54.25 31C54.25 18.1815 43.8185 7.75 31 7.75ZM31 11.625C41.7241 11.625 50.375 20.2759 50.375 31C50.3797 35.6383 48.7165 40.1237 45.6888 43.6375C42.6612 47.1514 38.471 49.4595 33.883 50.1406V36.6497H39.401L40.2671 31.0446H33.883V27.9833C33.883 25.6583 34.6483 23.591 36.8241 23.591H40.3213V18.7008C39.7071 18.6174 38.4071 18.4372 35.9503 18.4372C30.8198 18.4372 27.8128 21.1459 27.8128 27.3188V31.0446H22.5389V36.6497H27.8128V50.0921C23.2883 49.3474 19.1759 47.0183 16.2105 43.5208C13.245 40.0233 11.6197 35.5854 11.625 31C11.625 20.2759 20.2759 11.625 31 11.625Z" fill="#3C3C3C"/>
</svg>
