<svg width="48" height="48" viewBox="0 0 48 48" fill="none" xmlns="http://www.w3.org/2000/svg">
<g clip-path="url(#clip0_90_3300)">
<g clip-path="url(#clip1_90_3300)">
<path d="M25.8946 45.7067C26.7345 45.6874 27.5405 45.3716 28.1701 44.8153C28.7996 44.259 29.2121 43.4979 29.3346 42.6667H22.3213C22.4473 43.5205 22.8791 44.2994 23.5364 44.8586C24.1937 45.4178 25.0317 45.7192 25.8946 45.7067V45.7067Z" fill="white"/>
<path d="M45.6945 37.5067L45.2412 37.1067C43.9551 35.9608 42.8294 34.6468 41.8945 33.2C40.8735 31.2034 40.2615 29.023 40.0945 26.7867V20.2C40.0891 19.4 40.0177 18.6017 39.8812 17.8134C37.6227 17.3492 35.594 16.1187 34.1385 14.3304C32.6831 12.5421 31.8903 10.3058 31.8945 8.00003V7.16003C30.5024 6.47495 29.0067 6.02445 27.4679 5.8267V4.1467C27.4679 3.67461 27.2803 3.22186 26.9465 2.88805C26.6127 2.55423 26.1599 2.3667 25.6878 2.3667C25.2158 2.3667 24.763 2.55423 24.4292 2.88805C24.0954 3.22186 23.9078 3.67461 23.9078 4.1467V5.89337C20.4621 6.37944 17.3086 8.09569 15.0295 10.7253C12.7503 13.3549 11.4995 16.7202 11.5078 20.2V26.7867C11.3409 29.023 10.7289 31.2034 9.70785 33.2C8.78902 34.6432 7.68144 35.957 6.41452 37.1067L5.96118 37.5067V41.2667H45.6945V37.5067Z" fill="white"/>
<path d="M41.8944 14.6666C45.5763 14.6666 48.5611 11.6818 48.5611 7.99992C48.5611 4.31802 45.5763 1.33325 41.8944 1.33325C38.2126 1.33325 35.2278 4.31802 35.2278 7.99992C35.2278 11.6818 38.2126 14.6666 41.8944 14.6666Z" fill="white"/>
</g>
</g>
<defs>
<clipPath id="clip0_90_3300">
<rect width="48" height="48" fill="white"/>
</clipPath>
<clipPath id="clip1_90_3300">
<rect width="48" height="48" fill="white" transform="translate(1.89453)"/>
</clipPath>
</defs>
</svg>
