<svg width="41" height="42" viewBox="0 0 41 42" fill="none" xmlns="http://www.w3.org/2000/svg">
<path d="M20.25 4.54688C16.9959 4.54688 13.8148 5.51183 11.1091 7.31973C8.40344 9.12762 6.2946 11.6972 5.0493 14.7037C3.804 17.7101 3.47818 21.0183 4.11302 24.2098C4.74787 27.4014 6.31488 30.3331 8.61589 32.6341C10.9169 34.9351 13.8486 36.5021 17.0402 37.137C20.2318 37.7718 23.5399 37.446 26.5463 36.2007C29.5528 34.9554 32.1224 32.8466 33.9303 30.1409C35.7382 27.4352 36.7031 24.2541 36.7031 21C36.6948 16.6389 34.9586 12.4589 31.8749 9.37512C28.7911 6.29137 24.6111 4.55524 20.25 4.54688ZM20.25 34.9219C17.4965 34.9219 14.8049 34.1054 12.5154 32.5756C10.226 31.0459 8.44159 28.8716 7.38787 26.3277C6.33416 23.7838 6.05846 20.9846 6.59564 18.284C7.13282 15.5834 8.45875 13.1028 10.4058 11.1557C12.3528 9.20874 14.8334 7.88281 17.534 7.34563C20.2346 6.80845 23.0338 7.08415 25.5777 8.13786C28.1216 9.19158 30.2959 10.976 31.8256 13.2654C33.3554 15.5549 34.1719 18.2465 34.1719 21C34.1677 24.691 32.6996 28.2297 30.0896 30.8396C27.4797 33.4496 23.941 34.9177 20.25 34.9219ZM17.7188 15.9375V26.0625C17.7188 26.3982 17.5854 26.7201 17.3481 26.9574C17.1107 27.1948 16.7888 27.3281 16.4531 27.3281C16.1175 27.3281 15.7956 27.1948 15.5582 26.9574C15.3208 26.7201 15.1875 26.3982 15.1875 26.0625V15.9375C15.1875 15.6018 15.3208 15.2799 15.5582 15.0426C15.7956 14.8052 16.1175 14.6719 16.4531 14.6719C16.7888 14.6719 17.1107 14.8052 17.3481 15.0426C17.5854 15.2799 17.7188 15.6018 17.7188 15.9375ZM25.3125 15.9375V26.0625C25.3125 26.3982 25.1792 26.7201 24.9418 26.9574C24.7045 27.1948 24.3825 27.3281 24.0469 27.3281C23.7112 27.3281 23.3893 27.1948 23.1519 26.9574C22.9146 26.7201 22.7813 26.3982 22.7813 26.0625V15.9375C22.7813 15.6018 22.9146 15.2799 23.1519 15.0426C23.3893 14.8052 23.7112 14.6719 24.0469 14.6719C24.3825 14.6719 24.7045 14.8052 24.9418 15.0426C25.1792 15.2799 25.3125 15.6018 25.3125 15.9375Z" fill="black"/>
</svg>
