<svg width="41" height="42" viewBox="0 0 41 42" fill="none" xmlns="http://www.w3.org/2000/svg">
<path d="M20.25 4.86328C17.0585 4.86328 13.9386 5.80968 11.2849 7.58281C8.63126 9.35593 6.56297 11.8761 5.34162 14.8247C4.12027 17.7733 3.80071 21.0179 4.42335 24.1481C5.04599 27.2783 6.58286 30.1536 8.83962 32.4104C11.0964 34.6671 13.9717 36.204 17.1019 36.8267C20.2321 37.4493 23.4767 37.1297 26.4253 35.9084C29.3739 34.687 31.8941 32.6187 33.6672 29.9651C35.4403 27.3114 36.3867 24.1915 36.3867 21C36.3784 16.7228 34.6756 12.6233 31.6512 9.59885C28.6267 6.57444 24.5272 4.87164 20.25 4.86328ZM20.25 35.2383C17.4339 35.2383 14.6811 34.4032 12.3396 32.8387C9.99817 31.2742 8.17321 29.0505 7.09555 26.4488C6.01789 23.847 5.73592 20.9842 6.28531 18.2222C6.8347 15.4603 8.19076 12.9233 10.182 10.932C12.1733 8.94075 14.7103 7.58469 17.4723 7.0353C20.2342 6.48592 23.0971 6.76788 25.6988 7.84554C28.3005 8.9232 30.5242 10.7482 32.0887 13.0896C33.6532 15.4311 34.4883 18.1839 34.4883 21C34.4841 24.7749 32.9827 28.3941 30.3134 31.0634C27.6441 33.7326 24.0249 35.2341 20.25 35.2383ZM25.8346 20.209L18.2408 15.1465C18.0978 15.0523 17.932 14.9986 17.761 14.991C17.59 14.9833 17.4201 15.0221 17.2693 15.1032C17.1185 15.1843 16.9924 15.3046 16.9044 15.4515C16.8165 15.5984 16.7699 15.7663 16.7695 15.9375V26.0625C16.7697 26.2351 16.817 26.4043 16.9062 26.5521C16.9954 26.6998 17.1232 26.8204 17.2758 26.901C17.4257 26.9819 17.5948 27.0202 17.7649 27.0118C17.935 27.0035 18.0996 26.9487 18.2408 26.8535L25.8346 21.791C25.9651 21.7044 26.0722 21.5869 26.1463 21.4489C26.2203 21.3108 26.2591 21.1566 26.2591 21C26.2591 20.8434 26.2203 20.6892 26.1463 20.5511C26.0722 20.4131 25.9651 20.2956 25.8346 20.209ZM18.668 24.2906V17.7094L23.6039 21L18.668 24.2906Z" fill="black"/>
</svg>
