<svg width="52" height="52" viewBox="0 0 52 52" fill="none" xmlns="http://www.w3.org/2000/svg">
<g opacity="0.99">
<path fill-rule="evenodd" clip-rule="evenodd" d="M26 8.66683C16.4271 8.66683 8.66667 16.4272 8.66667 26.0002C8.66667 35.5731 16.4271 43.3335 26 43.3335C35.5729 43.3335 43.3333 35.5731 43.3333 26.0002C43.3333 16.4272 35.5729 8.66683 26 8.66683ZM4.33333 26.0002C4.33333 14.034 14.0338 4.3335 26 4.3335C37.9662 4.3335 47.6667 14.034 47.6667 26.0002C47.6667 37.9663 37.9662 47.6668 26 47.6668C14.0338 47.6668 4.33333 37.9663 4.33333 26.0002Z" fill="white"/>
<path fill-rule="evenodd" clip-rule="evenodd" d="M24.122 20.5847C23.5228 21.6205 22.1974 21.9745 21.1616 21.3753C20.1258 20.7761 19.7719 19.4507 20.371 18.4149C21.4916 16.4777 23.5915 15.1665 26.0001 15.1665C29.59 15.1665 32.5001 18.0767 32.5001 21.6665C32.5001 24.0449 31.0411 25.9868 29.2501 27.0832C27.8115 27.9638 28.7085 30.3332 25.9944 30.3332C24.7978 30.3332 23.8278 29.3631 23.8278 28.1665C23.8278 28.0904 23.8317 28.0153 23.8393 27.9412C23.8994 26.7954 24.4104 25.863 24.9667 25.185C25.5543 24.469 26.3267 23.8845 26.9174 23.5334C30.2036 21.5798 26.1955 17.5832 24.122 20.5847ZM25.9944 32.4998C24.7978 32.4998 23.8278 33.4699 23.8278 34.6665C23.8278 35.8631 24.7978 36.8332 25.9944 36.8332C27.1911 36.8332 28.1611 35.8631 28.1611 34.6665C28.1611 33.4699 27.1911 32.4998 25.9944 32.4998Z" fill="white"/>
</g>
</svg>
