<svg width="52" height="52" viewBox="0 0 52 52" fill="none" xmlns="http://www.w3.org/2000/svg">
<g opacity="0.99">
<path d="M23.92 37.4399C16.432 37.4399 10.4 31.4079 10.4 23.9199C10.4 16.4319 16.432 10.3999 23.92 10.3999C31.408 10.3999 37.44 16.4319 37.44 23.9199C37.44 31.4079 31.408 37.4399 23.92 37.4399ZM23.92 12.4799C17.576 12.4799 12.48 17.5759 12.48 23.9199C12.48 30.2639 17.576 35.3599 23.92 35.3599C30.264 35.3599 35.36 30.2639 35.36 23.9199C35.36 17.5759 30.264 12.4799 23.92 12.4799Z" fill="white"/>
<path d="M33.9892 32.5176L43.3284 41.8568L41.8579 43.3273L32.5187 33.9881L33.9892 32.5176Z" fill="white"/>
</g>
</svg>
