<svg width="48" height="50" viewBox="0 0 48 50" fill="none" xmlns="http://www.w3.org/2000/svg">
<g opacity="0.99">
<path d="M21.0081 23.2817C19.5262 23.2817 18.1385 23.8262 17.0879 24.8214C16.0421 25.8165 15.4623 27.1309 15.4623 28.5344C15.4623 29.9379 16.0421 31.2523 17.0879 32.2474C18.1385 33.2379 19.5262 33.7871 21.0081 33.7871C22.4899 33.7871 23.8776 33.2379 24.9283 32.2474C25.974 31.2523 26.5538 29.9379 26.5538 28.5344C26.5538 27.1309 25.974 25.8165 24.9283 24.8214C24.4151 24.3316 23.8043 23.9432 23.1313 23.6789C22.4583 23.4146 21.7366 23.2796 21.0081 23.2817ZM41.4417 34.3363L38.2004 31.7123C38.3541 30.8204 38.4334 29.9098 38.4334 29.0038C38.4334 28.0978 38.3541 27.1825 38.2004 26.2953L41.4417 23.6713C41.6865 23.4728 41.8618 23.2083 41.9441 22.9132C42.0264 22.618 42.0119 22.3061 41.9026 22.019L41.858 21.8969C40.966 19.5343 39.6294 17.3444 37.913 15.4331L37.8238 15.3345C37.6154 15.1024 37.3376 14.9356 37.027 14.856C36.7165 14.7764 36.3878 14.7877 36.0842 14.8886L32.06 16.2452C30.5731 15.0905 28.9178 14.1798 27.1238 13.5461L26.3457 9.56079C26.287 9.26057 26.1332 8.98437 25.9048 8.76889C25.6764 8.5534 25.3842 8.40884 25.067 8.35441L24.9332 8.33093C22.3561 7.88969 19.6402 7.88969 17.0631 8.33093L16.9293 8.35441C16.6121 8.40884 16.3199 8.5534 16.0915 8.76889C15.8631 8.98437 15.7093 9.26057 15.6506 9.56079L14.8676 13.5649C13.0905 14.2036 11.435 15.1121 9.96608 16.2546L5.91207 14.8886C5.60859 14.7869 5.27964 14.7752 4.96892 14.8548C4.6582 14.9345 4.38043 15.1018 4.17251 15.3345L4.08331 15.4331C2.36998 17.3464 1.03374 19.5358 0.138328 21.8969L0.0937234 22.019C-0.129297 22.6057 0.0540755 23.2629 0.554632 23.6713L3.83551 26.3235C3.68187 27.206 3.60753 28.1072 3.60753 28.9991C3.60753 29.9004 3.68187 30.8016 3.83551 31.6748L0.564544 34.3269C0.319696 34.5255 0.144455 34.7899 0.0621237 35.085C-0.0202077 35.3802 -0.00572894 35.6921 0.103635 35.9793L0.148239 36.1013C1.04528 38.4624 2.36853 40.6452 4.09322 42.5651L4.18243 42.6637C4.39085 42.8958 4.66863 43.0626 4.97916 43.1422C5.2897 43.2219 5.61841 43.2105 5.92198 43.1096L9.976 41.7436C11.4529 42.8937 13.0983 43.8043 14.8775 44.4333L15.6605 48.4374C15.7192 48.7377 15.873 49.0139 16.1014 49.2293C16.3298 49.4448 16.622 49.5894 16.9392 49.6438L17.073 49.6673C19.6755 50.1109 22.3407 50.1109 24.9431 49.6673L25.0769 49.6438C25.3941 49.5894 25.6863 49.4448 25.9147 49.2293C26.1431 49.0139 26.2969 48.7377 26.3556 48.4374L27.1337 44.4521C28.9278 43.8137 30.5831 42.9078 32.0699 41.753L36.0941 43.1096C36.3976 43.2113 36.7266 43.2231 37.0373 43.1434C37.348 43.0638 37.6258 42.8964 37.8337 42.6637L37.9229 42.5651C39.6476 40.6358 40.9708 38.4624 41.8679 36.1013L41.9125 35.9793C42.1256 35.3972 41.9422 34.7447 41.4417 34.3363ZM21.0081 36.7866C16.1958 36.7866 12.2954 33.0924 12.2954 28.5344C12.2954 23.9764 16.1958 20.2821 21.0081 20.2821C25.8203 20.2821 29.7207 23.9764 29.7207 28.5344C29.7207 33.0924 25.8203 36.7866 21.0081 36.7866Z" fill="white"/>
</g>
</svg>
