<svg width="13" height="22" viewBox="0 0 13 22" fill="none" xmlns="http://www.w3.org/2000/svg">
<path fill-rule="evenodd" clip-rule="evenodd" d="M4.12209 5.58499C3.52292 6.62078 2.19751 6.97474 1.16171 6.37556C0.125912 5.77638 -0.22804 4.45097 0.371138 3.41518C1.49175 1.47797 3.59158 0.166748 6.00022 0.166748C9.59007 0.166748 12.5002 3.0769 12.5002 6.66675C12.5002 9.04516 11.0412 10.987 9.25022 12.0834C7.81159 12.9641 8.70856 15.3334 5.99455 15.3334C4.79793 15.3334 3.82788 14.3634 3.82788 13.1667C3.82788 13.0907 3.8318 13.0155 3.83945 12.9415C3.89954 11.7956 4.41049 10.8632 4.96681 10.1853C5.55435 9.46928 6.32681 8.88479 6.91748 8.53365C10.2037 6.58008 6.1956 2.58344 4.12209 5.58499ZM5.99455 17.5001C4.79793 17.5001 3.82788 18.4701 3.82788 19.6667C3.82788 20.8634 4.79793 21.8334 5.99455 21.8334C7.19116 21.8334 8.16121 20.8634 8.16121 19.6667C8.16121 18.4701 7.19116 17.5001 5.99455 17.5001Z" fill="white"/>
</svg>
