<svg width="52" height="52" viewBox="0 0 52 52" fill="none" xmlns="http://www.w3.org/2000/svg">
<path d="M34.6667 30.3335C37.4583 30.3337 40.1422 31.4115 42.1585 33.3423C44.1749 35.273 45.368 37.9076 45.4892 40.6967L45.5 41.1668V43.3335C45.5003 44.4267 45.0875 45.4797 44.3441 46.2813C43.6007 47.083 42.5818 47.574 41.4917 47.656L41.1667 47.6668H10.8333C9.74008 47.6672 8.68711 47.2543 7.88548 46.5109C7.08385 45.7675 6.59283 44.7487 6.51083 43.6585L6.5 43.3335V41.1668C6.50016 38.3752 7.57801 35.6913 9.50876 33.675C11.4395 31.6586 14.0741 30.4655 16.8632 30.3443L17.3333 30.3335H34.6667ZM26 4.3335C28.8732 4.3335 31.6287 5.47486 33.6603 7.50651C35.692 9.53815 36.8333 12.2936 36.8333 15.1668C36.8333 18.04 35.692 20.7955 33.6603 22.8272C31.6287 24.8588 28.8732 26.0002 26 26.0002C23.1268 26.0002 20.3713 24.8588 18.3397 22.8272C16.308 20.7955 15.1667 18.04 15.1667 15.1668C15.1667 12.2936 16.308 9.53815 18.3397 7.50651C20.3713 5.47486 23.1268 4.3335 26 4.3335Z" fill="white"/>
</svg>
