<svg width="45" height="49" viewBox="0 0 45 49" fill="none" xmlns="http://www.w3.org/2000/svg">
<path d="M18.875 1.32384C19.8894 0.468893 21.1734 0 22.5 0C23.8266 0 25.1106 0.468893 26.125 1.32384L43 15.5613C44.27 16.6288 45 18.2013 45 19.8613V44.3663C45 45.5267 44.5391 46.6395 43.7186 47.4599C42.8981 48.2804 41.7853 48.7413 40.625 48.7413H33.125C31.9647 48.7413 30.8519 48.2804 30.0314 47.4599C29.2109 46.6395 28.75 45.5267 28.75 44.3663V31.8663C28.75 31.3691 28.5525 30.8921 28.2008 30.5405C27.8492 30.1889 27.3723 29.9913 26.875 29.9913H18.125C17.6277 29.9913 17.1508 30.1889 16.7992 30.5405C16.4475 30.8921 16.25 31.3691 16.25 31.8663V44.3663C16.25 45.5267 15.7891 46.6395 14.9686 47.4599C14.1481 48.2804 13.0353 48.7413 11.875 48.7413H4.375C3.80047 48.7413 3.23156 48.6282 2.70076 48.4083C2.16996 48.1884 1.68766 47.8662 1.28141 47.4599C0.875152 47.0537 0.552892 46.5714 0.333027 46.0406C0.113163 45.5098 0 44.9409 0 44.3663V19.8588C0 18.2013 0.73 16.6288 2 15.5588L18.875 1.32384V1.32384Z" fill="white"/>
</svg>
