<svg width="42" height="42" viewBox="0 0 42 42" fill="none" xmlns="http://www.w3.org/2000/svg">
<path d="M21.0081 15.2817C19.5262 15.2817 18.1385 15.8262 17.0879 16.8214C16.0421 17.8165 15.4623 19.1309 15.4623 20.5344C15.4623 21.9379 16.0421 23.2523 17.0879 24.2474C18.1385 25.2379 19.5262 25.7871 21.0081 25.7871C22.4899 25.7871 23.8776 25.2379 24.9283 24.2474C25.974 23.2523 26.5538 21.9379 26.5538 20.5344C26.5538 19.1309 25.974 17.8165 24.9283 16.8214C24.4151 16.3316 23.8043 15.9432 23.1313 15.6789C22.4583 15.4146 21.7366 15.2796 21.0081 15.2817ZM41.4417 26.3363L38.2004 23.7123C38.3541 22.8204 38.4334 21.9098 38.4334 21.0038C38.4334 20.0978 38.3541 19.1825 38.2004 18.2953L41.4417 15.6713C41.6865 15.4728 41.8618 15.2083 41.9441 14.9132C42.0264 14.618 42.0119 14.3061 41.9026 14.019L41.858 13.8969C40.966 11.5343 39.6294 9.34436 37.913 7.43313L37.8238 7.33455C37.6154 7.10244 37.3376 6.93558 37.027 6.85597C36.7165 6.77637 36.3878 6.78775 36.0842 6.88861L32.06 8.24521C30.5731 7.09046 28.9178 6.1798 27.1238 5.54609L26.3457 1.56079C26.287 1.26057 26.1332 0.984367 25.9048 0.768885C25.6764 0.553404 25.3842 0.408842 25.067 0.354405L24.9332 0.330935C22.3561 -0.110312 19.6402 -0.110312 17.0631 0.330935L16.9293 0.354405C16.6121 0.408842 16.3199 0.553404 16.0915 0.768885C15.8631 0.984367 15.7093 1.26057 15.6506 1.56079L14.8676 5.56487C13.0905 6.20363 11.435 7.11208 9.96608 8.25459L5.91207 6.88861C5.60859 6.78694 5.27964 6.77516 4.96892 6.85481C4.6582 6.93446 4.38043 7.10179 4.17251 7.33455L4.08331 7.43313C2.36998 9.3464 1.03374 11.5358 0.138328 13.8969L0.0937234 14.019C-0.129297 14.6057 0.0540755 15.2629 0.554632 15.6713L3.83551 18.3235C3.68187 19.206 3.60753 20.1072 3.60753 20.9991C3.60753 21.9004 3.68187 22.8016 3.83551 23.6748L0.564544 26.3269C0.319696 26.5255 0.144455 26.7899 0.0621237 27.085C-0.0202077 27.3802 -0.00572894 27.6921 0.103635 27.9793L0.148239 28.1013C1.04528 30.4624 2.36853 32.6452 4.09322 34.5651L4.18243 34.6637C4.39085 34.8958 4.66863 35.0626 4.97916 35.1422C5.2897 35.2219 5.61841 35.2105 5.92198 35.1096L9.976 33.7436C11.4529 34.8937 13.0983 35.8043 14.8775 36.4333L15.6605 40.4374C15.7192 40.7377 15.873 41.0139 16.1014 41.2293C16.3298 41.4448 16.622 41.5894 16.9392 41.6438L17.073 41.6673C19.6755 42.1109 22.3407 42.1109 24.9431 41.6673L25.0769 41.6438C25.3941 41.5894 25.6863 41.4448 25.9147 41.2293C26.1431 41.0139 26.2969 40.7377 26.3556 40.4374L27.1337 36.4521C28.9278 35.8137 30.5831 34.9078 32.0699 33.753L36.0941 35.1096C36.3976 35.2113 36.7266 35.2231 37.0373 35.1434C37.348 35.0638 37.6258 34.8964 37.8337 34.6637L37.9229 34.5651C39.6476 32.6358 40.9708 30.4624 41.8679 28.1013L41.9125 27.9793C42.1256 27.3972 41.9422 26.7447 41.4417 26.3363ZM21.0081 28.7866C16.1958 28.7866 12.2954 25.0924 12.2954 20.5344C12.2954 15.9764 16.1958 12.2821 21.0081 12.2821C25.8203 12.2821 29.7207 15.9764 29.7207 20.5344C29.7207 25.0924 25.8203 28.7866 21.0081 28.7866Z" fill="white"/>
</svg>
