<svg width="46" height="49" viewBox="0 0 46 49" fill="none" xmlns="http://www.w3.org/2000/svg">
<path d="M19.375 1.33238C20.3894 0.477438 21.6734 0.00854492 23 0.00854492C24.3266 0.00854492 25.6106 0.477438 26.625 1.33238L43.5 15.5699C44.77 16.6374 45.5 18.2099 45.5 19.8699V44.3749C45.5 45.5352 45.0391 46.648 44.2186 47.4685C43.3981 48.2889 42.2853 48.7499 41.125 48.7499H33.625C32.4647 48.7499 31.3519 48.2889 30.5314 47.4685C29.7109 46.648 29.25 45.5352 29.25 44.3749V31.8749C29.25 31.3776 29.0525 30.9007 28.7008 30.5491C28.3492 30.1974 27.8723 29.9999 27.375 29.9999H18.625C18.1277 29.9999 17.6508 30.1974 17.2992 30.5491C16.9475 30.9007 16.75 31.3776 16.75 31.8749V44.3749C16.75 45.5352 16.2891 46.648 15.4686 47.4685C14.6481 48.2889 13.5353 48.7499 12.375 48.7499H4.875C4.30047 48.7499 3.73156 48.6367 3.20076 48.4169C2.66996 48.197 2.18766 47.8747 1.78141 47.4685C1.37515 47.0622 1.05289 46.5799 0.833027 46.0491C0.613163 45.5183 0.5 44.9494 0.5 44.3749V19.8674C0.5 18.2099 1.23 16.6374 2.5 15.5674L19.375 1.33238V1.33238Z" fill="white"/>
</svg>
